<?xml version="1.0" standalone="yes"?>

<svg version="1.1" viewBox="0.0 0.0 1152.0 384.0" fill="none" stroke="none" stroke-linecap="square" stroke-miterlimit="10" xmlns="http://www.w3.org/2000/svg" xmlns:xlink="http://www.w3.org/1999/xlink"><clipPath id="p.0"><path d="m0 0l1152.0 0l0 384.0l-1152.0 0l0 -384.0z" clip-rule="nonzero"></path></clipPath><g clip-path="url(#p.0)"><path fill="#000000" fill-opacity="0.0" d="m0 0l1152.0 0l0 384.0l-1152.0 0z" fill-rule="nonzero"></path><path fill="#cc0000" d="m-1.7296588 -4.3254595l1163.244 0l0 392.66144l-1163.244 0z" fill-rule="nonzero"></path><path stroke="#000000" stroke-width="1.0" stroke-linejoin="round" stroke-linecap="butt" d="m-1.7296588 -4.3254595l1163.244 0l0 392.66144l-1163.244 0z" fill-rule="nonzero"></path><path fill="#cc0000" d="m315.02362 34.519684l521.95276 0l0 314.96063l-521.95276 0z" fill-rule="nonzero"></path><path fill="#ffffff" d="m326.5705 124.84187l1.203125 0.734375q-0.671875 1.328125 -0.703125 2.546875l0 1.578125l-2.046875 0l0 -1.4375q0.015625 -0.8125 0.40625 -1.734375q0.421875 -0.984375 1.140625 -1.6875zm3.0 0l1.203125 0.734375q-0.671875 1.328125 -0.703125 2.546875l0 1.578125l-2.046875 0l0 -1.4375q0.015625 -0.8125 0.40625 -1.734375q0.421875 -0.984375 1.140625 -1.6875zm11.505096 3.34375l-3.328125 0l0 11.234375l-2.75 0l0 -11.234375l-3.28125 0l0 -2.28125l9.359375 0l0 2.28125zm3.8172607 2.078125q0.859375 -1.0625 2.09375 -1.0625q1.375 0 2.09375 0.96875q0.71875 0.953125 0.71875 2.859375l0 6.390625l-2.625 0l0 -6.359375q0 -0.875 -0.28125 -1.265625q-0.28125 -0.40625 -0.890625 -0.40625q-0.703125 0 -1.109375 0.671875l0 7.359375l-2.625 0l0 -14.25l2.625 0l0 5.09375zm10.682373 9.34375q-2.03125 0 -3.171875 -1.203125q-1.125 -1.21875 -1.125 -3.453125l0 -0.796875q0 -2.375 1.03125 -3.65625q1.046875 -1.296875 2.984375 -1.296875q1.90625 0 2.859375 1.21875q0.953125 1.203125 0.96875 3.578125l0 1.28125l-5.21875 0q0.046875 1.109375 0.484375 1.625q0.4375 0.515625 1.34375 0.515625q1.328125 0 2.203125 -0.890625l1.03125 1.578125q-0.484375 0.671875 -1.40625 1.09375q-0.90625 0.40625 -1.984375 0.40625zm-1.65625 -6.15625l2.625 0l0 -0.25q-0.015625 -0.890625 -0.296875 -1.359375q-0.28125 -0.46875 -0.96875 -0.46875q-0.6875 0 -1.0 0.5q-0.296875 0.484375 -0.359375 1.578125zm9.739807 1.59375l1.34375 -5.65625l2.796875 0l-3.296875 11.53125q-0.75 2.546875 -2.796875 2.546875q-0.46875 0 -1.078125 -0.171875l0 -2.046875l0.3125 0.015625q0.609375 0 0.921875 -0.25q0.3125 -0.234375 0.46875 -0.8125l0.203125 -0.671875l-2.890625 -10.140625l2.8125 0l1.203125 5.65625zm11.969513 -4.78125q0.859375 -1.0625 2.09375 -1.0625q1.375 0 2.09375 0.96875q0.71875 0.953125 0.71875 2.859375l0 6.390625l-2.625 0l0 -6.359375q0 -0.875 -0.28125 -1.265625q-0.28125 -0.40625 -0.890625 -0.40625q-0.703125 0 -1.109375 0.671875l0 7.359375l-2.625 0l0 -14.25l2.625 0l0 5.09375zm11.385498 9.15625q-0.109375 -0.234375 -0.21875 -0.78125q-0.703125 0.96875 -1.90625 0.96875q-1.265625 0 -2.09375 -0.828125q-0.828125 -0.84375 -0.828125 -2.171875q0 -1.578125 1.0 -2.4375q1.015625 -0.859375 2.90625 -0.875l0.796875 0l0 -0.8125q0 -0.671875 -0.234375 -0.953125q-0.234375 -0.28125 -0.671875 -0.28125q-0.984375 0 -0.984375 1.15625l-2.625 0q0 -1.40625 1.03125 -2.296875q1.046875 -0.90625 2.640625 -0.90625q1.65625 0 2.5625 0.859375q0.90625 0.859375 0.90625 2.453125l0 4.71875q0.015625 1.296875 0.375 2.03125l0 0.15625l-2.65625 0zm-1.546875 -1.875q0.4375 0 0.734375 -0.171875q0.3125 -0.1875 0.46875 -0.421875l0 -2.09375l-0.640625 0q-0.65625 0 -1.046875 0.4375q-0.390625 0.421875 -0.390625 1.140625q0 1.109375 0.875 1.109375zm8.85968 -1.84375l1.265625 -6.3125l2.734375 0l-2.75 10.03125l-2.5 0l-2.765625 -10.03125l2.75 0l1.265625 6.3125zm9.146362 3.90625q-2.03125 0 -3.171875 -1.203125q-1.125 -1.21875 -1.125 -3.453125l0 -0.796875q0 -2.375 1.03125 -3.65625q1.046875 -1.296875 2.984375 -1.296875q1.90625 0 2.859375 1.21875q0.953125 1.203125 0.96875 3.578125l0 1.28125l-5.21875 0q0.046875 1.109375 0.484375 1.625q0.4375 0.515625 1.34375 0.515625q1.328125 0 2.203125 -0.890625l1.03125 1.578125q-0.484375 0.671875 -1.40625 1.09375q-0.90625 0.40625 -1.984375 0.40625zm-1.65625 -6.15625l2.625 0l0 -0.25q-0.015625 -0.890625 -0.296875 -1.359375q-0.28125 -0.46875 -0.96875 -0.46875q-0.6875 0 -1.0 0.5q-0.296875 0.484375 -0.359375 1.578125zm18.648865 1.265625q0 2.359375 -0.8125 3.625q-0.8125 1.265625 -2.421875 1.265625q-1.21875 0 -1.96875 -1.0l0 4.671875l-2.625 0l0 -13.890625l2.4375 0l0.09375 0.90625q0.75 -1.09375 2.046875 -1.09375q1.609375 0 2.421875 1.171875q0.8125 1.15625 0.828125 3.578125l0 0.765625zm-2.625 -0.65625q0 -1.453125 -0.328125 -2.0625q-0.3125 -0.609375 -1.0625 -0.609375q-0.8125 0 -1.1875 0.6875l0 4.703125q0.359375 0.640625 1.203125 0.640625q0.78125 0 1.078125 -0.65625q0.296875 -0.65625 0.296875 -2.046875l0 -0.65625zm6.79953 5.359375l-2.640625 0l0 -14.25l2.640625 0l0 14.25zm6.7005005 0q-0.109375 -0.234375 -0.21875 -0.78125q-0.703125 0.96875 -1.90625 0.96875q-1.265625 0 -2.09375 -0.828125q-0.828125 -0.84375 -0.828125 -2.171875q0 -1.578125 1.0 -2.4375q1.015625 -0.859375 2.90625 -0.875l0.796875 0l0 -0.8125q0 -0.671875 -0.234375 -0.953125q-0.234375 -0.28125 -0.671875 -0.28125q-0.984375 0 -0.984375 1.15625l-2.625 0q0 -1.40625 1.03125 -2.296875q1.046875 -0.90625 2.640625 -0.90625q1.65625 0 2.5625 0.859375q0.90625 0.859375 0.90625 2.453125l0 4.71875q0.015625 1.296875 0.375 2.03125l0 0.15625l-2.65625 0zm-1.546875 -1.875q0.4375 0 0.734375 -0.171875q0.3125 -0.1875 0.46875 -0.421875l0 -2.09375l-0.640625 0q-0.65625 0 -1.046875 0.4375q-0.390625 0.421875 -0.390625 1.140625q0 1.109375 0.875 1.109375zm8.781555 -2.5l1.34375 -5.65625l2.796875 0l-3.296875 11.53125q-0.75 2.546875 -2.796875 2.546875q-0.46875 0 -1.078125 -0.171875l0 -2.046875l0.3125 0.015625q0.609375 0 0.921875 -0.25q0.3125 -0.234375 0.46875 -0.8125l0.203125 -0.671875l-2.890625 -10.140625l2.8125 0l1.203125 5.65625zm9.16983 4.5625q-2.03125 0 -3.171875 -1.203125q-1.125 -1.21875 -1.125 -3.453125l0 -0.796875q0 -2.375 1.03125 -3.65625q1.046875 -1.296875 2.984375 -1.296875q1.90625 0 2.859375 1.21875q0.953125 1.203125 0.96875 3.578125l0 1.28125l-5.21875 0q0.046875 1.109375 0.484375 1.625q0.4375 0.515625 1.34375 0.515625q1.328125 0 2.203125 -0.890625l1.03125 1.578125q-0.484375 0.671875 -1.40625 1.09375q-0.90625 0.40625 -1.984375 0.40625zm-1.65625 -6.15625l2.625 0l0 -0.25q-0.015625 -0.890625 -0.296875 -1.359375q-0.28125 -0.46875 -0.96875 -0.46875q-0.6875 0 -1.0 0.5q-0.296875 0.484375 -0.359375 1.578125zm6.177307 0.640625q0 -2.46875 0.828125 -3.671875q0.828125 -1.21875 2.4375 -1.21875q1.15625 0 1.921875 1.0l0 -5.03125l2.640625 0l0 14.25l-2.375 0l-0.125 -1.015625q-0.8125 1.203125 -2.078125 1.203125q-1.578125 0 -2.40625 -1.203125q-0.828125 -1.21875 -0.84375 -3.546875l0 -0.765625zm2.625 0.65625q0 1.484375 0.3125 2.078125q0.328125 0.59375 1.078125 0.59375q0.78125 0 1.171875 -0.703125l0 -4.578125q-0.390625 -0.75 -1.171875 -0.75q-0.71875 0 -1.0625 0.59375q-0.328125 0.578125 -0.328125 2.078125l0 0.6875zm16.030182 4.671875q-0.109375 -0.234375 -0.21875 -0.78125q-0.703125 0.96875 -1.90625 0.96875q-1.265625 0 -2.09375 -0.828125q-0.828125 -0.84375 -0.828125 -2.171875q0 -1.578125 1.0 -2.4375q1.015625 -0.859375 2.90625 -0.875l0.796875 0l0 -0.8125q0 -0.671875 -0.234375 -0.953125q-0.234375 -0.28125 -0.671875 -0.28125q-0.984375 0 -0.984375 1.15625l-2.625 0q0 -1.40625 1.03125 -2.296875q1.046875 -0.90625 2.640625 -0.90625q1.65625 0 2.5625 0.859375q0.90625 0.859375 0.90625 2.453125l0 4.71875q0.015625 1.296875 0.375 2.03125l0 0.15625l-2.65625 0zm-1.546875 -1.875q0.4375 0 0.734375 -0.171875q0.3125 -0.1875 0.46875 -0.421875l0 -2.09375l-0.640625 0q-0.65625 0 -1.046875 0.4375q-0.390625 0.421875 -0.390625 1.140625q0 1.109375 0.875 1.109375zm7.969055 -8.15625l0.078125 0.984375q0.890625 -1.171875 2.328125 -1.171875q2.578125 0 2.65625 3.625l0 6.59375l-2.625 0l0 -6.40625q0 -0.84375 -0.265625 -1.234375q-0.25 -0.390625 -0.890625 -0.390625q-0.71875 0 -1.109375 0.734375l0 7.296875l-2.640625 0l0 -10.03125l2.46875 0zm15.138306 10.21875q-2.03125 0 -3.171875 -1.203125q-1.125 -1.21875 -1.125 -3.453125l0 -0.796875q0 -2.375 1.03125 -3.65625q1.046875 -1.296875 2.984375 -1.296875q1.90625 0 2.859375 1.21875q0.953125 1.203125 0.96875 3.578125l0 1.28125l-5.21875 0q0.046875 1.109375 0.484375 1.625q0.4375 0.515625 1.34375 0.515625q1.328125 0 2.203125 -0.890625l1.03125 1.578125q-0.484375 0.671875 -1.40625 1.09375q-0.90625 0.40625 -1.984375 0.40625zm-1.65625 -6.15625l2.625 0l0 -0.25q-0.015625 -0.890625 -0.296875 -1.359375q-0.28125 -0.46875 -0.96875 -0.46875q-0.6875 0 -1.0 0.5q-0.296875 0.484375 -0.359375 1.578125zm10.974182 3.28125q0 -0.34375 -0.328125 -0.625q-0.3125 -0.28125 -1.421875 -0.765625q-1.625 -0.65625 -2.234375 -1.359375q-0.609375 -0.703125 -0.609375 -1.75q0 -1.3125 0.953125 -2.171875q0.953125 -0.859375 2.515625 -0.859375q1.65625 0 2.640625 0.859375q1.0 0.84375 1.0 2.28125l-2.625 0q0 -1.21875 -1.015625 -1.21875q-0.421875 0 -0.6875 0.265625q-0.265625 0.25 -0.265625 0.71875q0 0.328125 0.296875 0.59375q0.296875 0.25 1.390625 0.71875q1.609375 0.59375 2.265625 1.328125q0.671875 0.71875 0.671875 1.875q0 1.34375 -1.015625 2.171875q-1.015625 0.8125 -2.65625 0.8125q-1.09375 0 -1.9375 -0.421875q-0.84375 -0.4375 -1.328125 -1.203125q-0.484375 -0.78125 -0.484375 -1.671875l2.5 0q0.015625 0.6875 0.3125 1.03125q0.3125 0.34375 1.0 0.34375q1.0625 0 1.0625 -0.953125zm8.471832 0q0 -0.34375 -0.328125 -0.625q-0.3125 -0.28125 -1.421875 -0.765625q-1.625 -0.65625 -2.234375 -1.359375q-0.609375 -0.703125 -0.609375 -1.75q0 -1.3125 0.953125 -2.171875q0.953125 -0.859375 2.515625 -0.859375q1.65625 0 2.640625 0.859375q1.0 0.84375 1.0 2.28125l-2.625 0q0 -1.21875 -1.015625 -1.21875q-0.421875 0 -0.6875 0.265625q-0.265625 0.25 -0.265625 0.71875q0 0.328125 0.296875 0.59375q0.296875 0.25 1.390625 0.71875q1.609375 0.59375 2.265625 1.328125q0.671875 0.71875 0.671875 1.875q0 1.34375 -1.015625 2.171875q-1.015625 0.8125 -2.65625 0.8125q-1.09375 0 -1.9375 -0.421875q-0.84375 -0.4375 -1.328125 -1.203125q-0.484375 -0.78125 -0.484375 -1.671875l2.5 0q0.015625 0.6875 0.3125 1.03125q0.3125 0.34375 1.0 0.34375q1.0625 0 1.0625 -0.953125zm8.081238 2.875q-2.03125 0 -3.171875 -1.203125q-1.125 -1.21875 -1.125 -3.453125l0 -0.796875q0 -2.375 1.03125 -3.65625q1.046875 -1.296875 2.984375 -1.296875q1.90625 0 2.859375 1.21875q0.953125 1.203125 0.96875 3.578125l0 1.28125l-5.21875 0q0.046875 1.109375 0.484375 1.625q0.4375 0.515625 1.34375 0.515625q1.328125 0 2.203125 -0.890625l1.03125 1.578125q-0.484375 0.671875 -1.40625 1.09375q-0.90625 0.40625 -1.984375 0.40625zm-1.65625 -6.15625l2.625 0l0 -0.25q-0.015625 -0.890625 -0.296875 -1.359375q-0.28125 -0.46875 -0.96875 -0.46875q-0.6875 0 -1.0 0.5q-0.296875 0.484375 -0.359375 1.578125zm8.927307 -4.0625l0.078125 0.984375q0.890625 -1.171875 2.328125 -1.171875q2.578125 0 2.65625 3.625l0 6.59375l-2.625 0l0 -6.40625q0 -0.84375 -0.265625 -1.234375q-0.25 -0.390625 -0.890625 -0.390625q-0.71875 0 -1.109375 0.734375l0 7.296875l-2.640625 0l0 -10.03125l2.46875 0zm9.838623 -2.46875l0 2.46875l1.34375 0l0 1.96875l-1.34375 0l0 4.984375q0 0.59375 0.15625 0.8125q0.15625 0.21875 0.625 0.21875q0.375 0 0.625 -0.0625l-0.015625 2.046875q-0.671875 0.25 -1.453125 0.25q-2.546875 0 -2.578125 -2.921875l0 -5.328125l-1.15625 0l0 -1.96875l1.15625 0l0 -2.46875l2.640625 0zm5.4329834 12.5l-2.640625 0l0 -10.03125l2.640625 0l0 10.03125zm-2.765625 -12.640625q0 -0.609375 0.390625 -1.0q0.390625 -0.390625 1.03125 -0.390625q0.65625 0 1.046875 0.390625q0.390625 0.390625 0.390625 1.0q0 0.609375 -0.390625 1.015625q-0.375 0.390625 -1.046875 0.390625q-0.65625 0 -1.046875 -0.390625q-0.375 -0.40625 -0.375 -1.015625zm9.4661255 12.640625q-0.109375 -0.234375 -0.21875 -0.78125q-0.703125 0.96875 -1.90625 0.96875q-1.265625 0 -2.09375 -0.828125q-0.828125 -0.84375 -0.828125 -2.171875q0 -1.578125 1.0 -2.4375q1.015625 -0.859375 2.90625 -0.875l0.796875 0l0 -0.8125q0 -0.671875 -0.234375 -0.953125q-0.234375 -0.28125 -0.671875 -0.28125q-0.984375 0 -0.984375 1.15625l-2.625 0q0 -1.40625 1.03125 -2.296875q1.046875 -0.90625 2.640625 -0.90625q1.65625 0 2.5625 0.859375q0.90625 0.859375 0.90625 2.453125l0 4.71875q0.015625 1.296875 0.375 2.03125l0 0.15625l-2.65625 0zm-1.546875 -1.875q0.4375 0 0.734375 -0.171875q0.3125 -0.1875 0.46875 -0.421875l0 -2.09375l-0.640625 0q-0.65625 0 -1.046875 0.4375q-0.390625 0.421875 -0.390625 1.140625q0 1.109375 0.875 1.109375zm8.32843 1.875l-2.640625 0l0 -14.25l2.640625 0l0 14.25zm11.187683 -7.5l-0.875 -0.078125q-1.0625 0 -1.453125 0.9375l0 6.640625l-2.625 0l0 -10.03125l2.46875 0l0.078125 1.078125q0.625 -1.265625 1.71875 -1.265625q0.4375 0 0.71875 0.109375l-0.03125 2.609375zm0.93536377 2.15625q0 -2.28125 1.0625 -3.578125q1.078125 -1.296875 2.984375 -1.296875q1.921875 0 3.0 1.296875q1.078125 1.296875 1.078125 3.59375l0 0.640625q0 2.296875 -1.078125 3.59375q-1.0625 1.28125 -2.984375 1.28125q-1.921875 0 -3.0 -1.296875q-1.0625 -1.296875 -1.0625 -3.59375l0 -0.640625zm2.625 0.65625q0 2.6875 1.4375 2.6875q1.328125 0 1.4375 -2.234375l0 -1.109375q0 -1.375 -0.375 -2.03125q-0.375 -0.671875 -1.078125 -0.671875q-0.671875 0 -1.046875 0.671875q-0.375 0.65625 -0.375 2.03125l0 0.65625zm9.720032 4.6875l-2.640625 0l0 -14.25l2.640625 0l0 14.25zm5.9973755 0.1875q-2.03125 0 -3.171875 -1.203125q-1.125 -1.21875 -1.125 -3.453125l0 -0.796875q0 -2.375 1.03125 -3.65625q1.046875 -1.296875 2.984375 -1.296875q1.90625 0 2.859375 1.21875q0.953125 1.203125 0.96875 3.578125l0 1.28125l-5.21875 0q0.046875 1.109375 0.484375 1.625q0.4375 0.515625 1.34375 0.515625q1.328125 0 2.203125 -0.890625l1.03125 1.578125q-0.484375 0.671875 -1.40625 1.09375q-0.90625 0.40625 -1.984375 0.40625zm-1.65625 -6.15625l2.625 0l0 -0.25q-0.015625 -0.890625 -0.296875 -1.359375q-0.28125 -0.46875 -0.96875 -0.46875q-0.6875 0 -1.0 0.5q-0.296875 0.484375 -0.359375 1.578125zm13.586365 5.96875l-2.640625 0l0 -10.03125l2.640625 0l0 10.03125zm-2.765625 -12.640625q0 -0.609375 0.390625 -1.0q0.390625 -0.390625 1.03125 -0.390625q0.65625 0 1.046875 0.390625q0.390625 0.390625 0.390625 1.0q0 0.609375 -0.390625 1.015625q-0.375 0.390625 -1.046875 0.390625q-0.65625 0 -1.046875 -0.390625q-0.375 -0.40625 -0.375 -1.015625zm7.1067505 2.609375l0.078125 0.984375q0.890625 -1.171875 2.328125 -1.171875q2.578125 0 2.65625 3.625l0 6.59375l-2.625 0l0 -6.40625q0 -0.84375 -0.265625 -1.234375q-0.25 -0.390625 -0.890625 -0.390625q-0.71875 0 -1.109375 0.734375l0 7.296875l-2.640625 0l0 -10.03125l2.46875 0zm15.138306 10.21875q-2.03125 0 -3.171875 -1.203125q-1.125 -1.21875 -1.125 -3.453125l0 -0.796875q0 -2.375 1.03125 -3.65625q1.046875 -1.296875 2.984375 -1.296875q1.90625 0 2.859375 1.21875q0.953125 1.203125 0.96875 3.578125l0 1.28125l-5.21875 0q0.046875 1.109375 0.484375 1.625q0.4375 0.515625 1.34375 0.515625q1.328125 0 2.203125 -0.890625l1.03125 1.578125q-0.484375 0.671875 -1.40625 1.09375q-0.90625 0.40625 -1.984375 0.40625zm-1.65625 -6.15625l2.625 0l0 -0.25q-0.015625 -0.890625 -0.296875 -1.359375q-0.28125 -0.46875 -0.96875 -0.46875q-0.6875 0 -1.0 0.5q-0.296875 0.484375 -0.359375 1.578125zm8.927307 -4.0625l0.078125 0.984375q0.890625 -1.171875 2.328125 -1.171875q2.578125 0 2.65625 3.625l0 6.59375l-2.625 0l0 -6.40625q0 -0.84375 -0.265625 -1.234375q-0.25 -0.390625 -0.890625 -0.390625q-0.71875 0 -1.109375 0.734375l0 7.296875l-2.640625 0l0 -10.03125l2.46875 0zm6.463623 4.703125q0 -2.46875 0.890625 -3.671875q0.890625 -1.21875 2.5 -1.21875q1.359375 0 2.09375 1.078125l0.109375 -0.890625l2.359375 0l0 10.03125q0 1.921875 -1.078125 2.9375q-1.0625 1.015625 -3.078125 1.015625q-0.828125 0 -1.734375 -0.328125q-0.90625 -0.328125 -1.359375 -0.84375l0.890625 -1.8125q0.359375 0.390625 0.953125 0.625q0.59375 0.25 1.125 0.25q0.890625 0 1.265625 -0.421875q0.390625 -0.421875 0.390625 -1.359375l0 -0.859375q-0.75 0.984375 -1.953125 0.984375q-1.609375 0 -2.484375 -1.25q-0.875 -1.25 -0.890625 -3.515625l0 -0.75zm2.625 0.65625q0 1.390625 0.359375 2.03125q0.359375 0.640625 1.15625 0.640625q0.796875 0 1.1875 -0.59375l0 -4.796875q-0.40625 -0.640625 -1.171875 -0.640625q-0.78125 0 -1.15625 0.640625q-0.375 0.640625 -0.375 2.0625l0 0.65625zm11.8359375 4.671875q-0.109375 -0.234375 -0.21875 -0.78125q-0.703125 0.96875 -1.90625 0.96875q-1.265625 0 -2.09375 -0.828125q-0.828125 -0.84375 -0.828125 -2.171875q0 -1.578125 1.0 -2.4375q1.015625 -0.859375 2.90625 -0.875l0.796875 0l0 -0.8125q0 -0.671875 -0.234375 -0.953125q-0.234375 -0.28125 -0.671875 -0.28125q-0.984375 0 -0.984375 1.15625l-2.625 0q0 -1.40625 1.03125 -2.296875q1.046875 -0.90625 2.640625 -0.90625q1.65625 0 2.5625 0.859375q0.90625 0.859375 0.90625 2.453125l0 4.71875q0.015625 1.296875 0.375 2.03125l0 0.15625l-2.65625 0zm-1.546875 -1.875q0.4375 0 0.734375 -0.171875q0.3125 -0.1875 0.46875 -0.421875l0 -2.09375l-0.640625 0q-0.65625 0 -1.046875 0.4375q-0.390625 0.421875 -0.390625 1.140625q0 1.109375 0.875 1.109375zm5.250305 -3.453125q0 -2.46875 0.890625 -3.671875q0.890625 -1.21875 2.5 -1.21875q1.359375 0 2.09375 1.078125l0.109375 -0.890625l2.359375 0l0 10.03125q0 1.921875 -1.078125 2.9375q-1.0625 1.015625 -3.078125 1.015625q-0.828125 0 -1.734375 -0.328125q-0.90625 -0.328125 -1.359375 -0.84375l0.890625 -1.8125q0.359375 0.390625 0.953125 0.625q0.59375 0.25 1.125 0.25q0.890625 0 1.265625 -0.421875q0.390625 -0.421875 0.390625 -1.359375l0 -0.859375q-0.75 0.984375 -1.953125 0.984375q-1.609375 0 -2.484375 -1.25q-0.875 -1.25 -0.890625 -3.515625l0 -0.75zm2.625 0.65625q0 1.390625 0.359375 2.03125q0.359375 0.640625 1.15625 0.640625q0.796875 0 1.1875 -0.59375l0 -4.796875q-0.40625 -0.640625 -1.171875 -0.640625q-0.78125 0 -1.15625 0.640625q-0.375 0.640625 -0.375 2.0625l0 0.65625zm9.835876 4.671875l-2.640625 0l0 -10.03125l2.640625 0l0 10.03125zm-2.765625 -12.640625q0 -0.609375 0.390625 -1.0q0.390625 -0.390625 1.03125 -0.390625q0.65625 0 1.046875 0.390625q0.390625 0.390625 0.390625 1.0q0 0.609375 -0.390625 1.015625q-0.375 0.390625 -1.046875 0.390625q-0.65625 0 -1.046875 -0.390625q-0.375 -0.40625 -0.375 -1.015625zm7.1067505 2.609375l0.078125 0.984375q0.890625 -1.171875 2.328125 -1.171875q2.578125 0 2.65625 3.625l0 6.59375l-2.625 0l0 -6.40625q0 -0.84375 -0.265625 -1.234375q-0.25 -0.390625 -0.890625 -0.390625q-0.71875 0 -1.109375 0.734375l0 7.296875l-2.640625 0l0 -10.03125l2.46875 0zm6.463623 4.703125q0 -2.46875 0.890625 -3.671875q0.890625 -1.21875 2.5 -1.21875q1.359375 0 2.09375 1.078125l0.109375 -0.890625l2.359375 0l0 10.03125q0 1.921875 -1.078125 2.9375q-1.0625 1.015625 -3.078125 1.015625q-0.828125 0 -1.734375 -0.328125q-0.90625 -0.328125 -1.359375 -0.84375l0.890625 -1.8125q0.359375 0.390625 0.953125 0.625q0.59375 0.25 1.125 0.25q0.890625 0 1.265625 -0.421875q0.390625 -0.421875 0.390625 -1.359375l0 -0.859375q-0.75 0.984375 -1.953125 0.984375q-1.609375 0 -2.484375 -1.25q-0.875 -1.25 -0.890625 -3.515625l0 -0.75zm2.625 0.65625q0 1.390625 0.359375 2.03125q0.359375 0.640625 1.15625 0.640625q0.796875 0 1.1875 -0.59375l0 -4.796875q-0.40625 -0.640625 -1.171875 -0.640625q-0.78125 0 -1.15625 0.640625q-0.375 0.640625 -0.375 2.0625l0 0.65625zm13.932495 -4.484375q0.859375 -1.0625 2.09375 -1.0625q1.375 0 2.09375 0.96875q0.71875 0.953125 0.71875 2.859375l0 6.390625l-2.625 0l0 -6.359375q0 -0.875 -0.28125 -1.265625q-0.28125 -0.40625 -0.890625 -0.40625q-0.703125 0 -1.109375 0.671875l0 7.359375l-2.625 0l0 -14.25l2.625 0l0 5.09375zm9.385498 9.15625l-2.640625 0l0 -10.03125l2.640625 0l0 10.03125zm-2.765625 -12.640625q0 -0.609375 0.390625 -1.0q0.390625 -0.390625 1.03125 -0.390625q0.65625 0 1.046875 0.390625q0.390625 0.390625 0.390625 1.0q0 0.609375 -0.390625 1.015625q-0.375 0.390625 -1.046875 0.390625q-0.65625 0 -1.046875 -0.390625q-0.375 -0.40625 -0.375 -1.015625zm4.3880005 7.3125q0 -2.46875 0.890625 -3.671875q0.890625 -1.21875 2.5 -1.21875q1.359375 0 2.09375 1.078125l0.109375 -0.890625l2.359375 0l0 10.03125q0 1.921875 -1.078125 2.9375q-1.0625 1.015625 -3.078125 1.015625q-0.828125 0 -1.734375 -0.328125q-0.90625 -0.328125 -1.359375 -0.84375l0.890625 -1.8125q0.359375 0.390625 0.953125 0.625q0.59375 0.25 1.125 0.25q0.890625 0 1.265625 -0.421875q0.390625 -0.421875 0.390625 -1.359375l0 -0.859375q-0.75 0.984375 -1.953125 0.984375q-1.609375 0 -2.484375 -1.25q-0.875 -1.25 -0.890625 -3.515625l0 -0.75zm2.625 0.65625q0 1.390625 0.359375 2.03125q0.359375 0.640625 1.15625 0.640625q0.796875 0 1.1875 -0.59375l0 -4.796875q-0.40625 -0.640625 -1.171875 -0.640625q-0.78125 0 -1.15625 0.640625q-0.375 0.640625 -0.375 2.0625l0 0.65625zm9.632751 -4.484375q0.859375 -1.0625 2.09375 -1.0625q1.375 0 2.09375 0.96875q0.71875 0.953125 0.71875 2.859375l0 6.390625l-2.625 0l0 -6.359375q0 -0.875 -0.28125 -1.265625q-0.28125 -0.40625 -0.890625 -0.40625q-0.703125 0 -1.109375 0.671875l0 7.359375l-2.625 0l0 -14.25l2.625 0l0 5.09375z" fill-rule="nonzero"></path><path fill="#ffffff" d="m338.02924 162.7325q0 -0.34375 -0.328125 -0.625q-0.3125 -0.28125 -1.421875 -0.765625q-1.625 -0.65625 -2.234375 -1.359375q-0.609375 -0.703125 -0.609375 -1.75q0 -1.3125 0.953125 -2.171875q0.953125 -0.859375 2.515625 -0.859375q1.65625 0 2.640625 0.859375q1.0 0.84375 1.0 2.28125l-2.625 0q0 -1.21875 -1.015625 -1.21875q-0.421875 0 -0.6875 0.265625q-0.265625 0.25 -0.265625 0.71875q0 0.328125 0.296875 0.59375q0.296875 0.25 1.390625 0.71875q1.609375 0.59375 2.265625 1.328125q0.671875 0.71875 0.671875 1.875q0 1.34375 -1.015625 2.171875q-1.015625 0.8125 -2.65625 0.8125q-1.09375 0 -1.9375 -0.421875q-0.84375 -0.4375 -1.328125 -1.203125q-0.484375 -0.78125 -0.484375 -1.671875l2.5 0q0.015625 0.6875 0.3125 1.03125q0.3125 0.34375 1.0 0.34375q1.0625 0 1.0625 -0.953125zm7.6437073 0.6875q1.140625 0 1.171875 -1.484375l2.453125 0q-0.015625 1.640625 -1.015625 2.65625q-0.984375 1.015625 -2.546875 1.015625q-1.9375 0 -2.96875 -1.203125q-1.015625 -1.21875 -1.03125 -3.5625l0 -0.796875q0 -2.359375 1.0 -3.59375q1.015625 -1.25 2.984375 -1.25q1.65625 0 2.609375 1.03125q0.953125 1.015625 0.96875 2.890625l-2.453125 0q-0.015625 -0.84375 -0.28125 -1.296875q-0.265625 -0.453125 -0.890625 -0.453125q-0.6875 0 -0.984375 0.5q-0.296875 0.484375 -0.3125 1.875l0 1.03125q0 1.21875 0.109375 1.703125q0.125 0.484375 0.40625 0.71875q0.28125 0.21875 0.78125 0.21875zm7.5186462 -7.15625q0.859375 -1.0625 2.09375 -1.0625q1.375 0 2.09375 0.96875q0.71875 0.953125 0.71875 2.859375l0 6.390625l-2.625 0l0 -6.359375q0 -0.875 -0.28125 -1.265625q-0.28125 -0.40625 -0.890625 -0.40625q-0.703125 0 -1.109375 0.671875l0 7.359375l-2.625 0l0 -14.25l2.625 0l0 5.09375zm6.322998 3.8125q0 -2.28125 1.0625 -3.578125q1.078125 -1.296875 2.984375 -1.296875q1.921875 0 3.0 1.296875q1.078125 1.296875 1.078125 3.59375l0 0.640625q0 2.296875 -1.078125 3.59375q-1.0625 1.28125 -2.984375 1.28125q-1.921875 0 -3.0 -1.296875q-1.0625 -1.296875 -1.0625 -3.59375l0 -0.640625zm2.625 0.65625q0 2.6875 1.4375 2.6875q1.328125 0 1.4375 -2.234375l0 -1.109375q0 -1.375 -0.375 -2.03125q-0.375 -0.671875 -1.078125 -0.671875q-0.671875 0 -1.046875 0.671875q-0.375 0.65625 -0.375 2.03125l0 0.65625zm6.657593 -0.65625q0 -2.28125 1.0625 -3.578125q1.078125 -1.296875 2.984375 -1.296875q1.921875 0 3.0 1.296875q1.078125 1.296875 1.078125 3.59375l0 0.640625q0 2.296875 -1.078125 3.59375q-1.0625 1.28125 -2.984375 1.28125q-1.921875 0 -3.0 -1.296875q-1.0625 -1.296875 -1.0625 -3.59375l0 -0.640625zm2.625 0.65625q0 2.6875 1.4375 2.6875q1.328125 0 1.4375 -2.234375l0 -1.109375q0 -1.375 -0.375 -2.03125q-0.375 -0.671875 -1.078125 -0.671875q-0.671875 0 -1.046875 0.671875q-0.375 0.65625 -0.375 2.03125l0 0.65625zm9.720062 4.6875l-2.640625 0l0 -14.25l2.640625 0l0 14.25zm10.687683 -2.6875q0 -0.34375 -0.328125 -0.625q-0.3125 -0.28125 -1.421875 -0.765625q-1.625 -0.65625 -2.234375 -1.359375q-0.609375 -0.703125 -0.609375 -1.75q0 -1.3125 0.953125 -2.171875q0.953125 -0.859375 2.515625 -0.859375q1.65625 0 2.640625 0.859375q1.0 0.84375 1.0 2.28125l-2.625 0q0 -1.21875 -1.015625 -1.21875q-0.421875 0 -0.6875 0.265625q-0.265625 0.25 -0.265625 0.71875q0 0.328125 0.296875 0.59375q0.296875 0.25 1.390625 0.71875q1.609375 0.59375 2.265625 1.328125q0.671875 0.71875 0.671875 1.875q0 1.34375 -1.015625 2.171875q-1.015625 0.8125 -2.65625 0.8125q-1.09375 0 -1.9375 -0.421875q-0.84375 -0.4375 -1.328125 -1.203125q-0.484375 -0.78125 -0.484375 -1.671875l2.5 0q0.015625 0.6875 0.3125 1.03125q0.3125 0.34375 1.0 0.34375q1.0625 0 1.0625 -0.953125zm7.0812073 -9.8125l0 2.46875l1.34375 0l0 1.96875l-1.34375 0l0 4.984375q0 0.59375 0.15625 0.8125q0.15625 0.21875 0.625 0.21875q0.375 0 0.625 -0.0625l-0.015625 2.046875q-0.671875 0.25 -1.453125 0.25q-2.546875 0 -2.578125 -2.921875l0 -5.328125l-1.15625 0l0 -1.96875l1.15625 0l0 -2.46875l2.640625 0zm7.604889 11.578125q-0.8125 1.109375 -2.1875 1.109375q-1.390625 0 -2.109375 -0.953125q-0.703125 -0.953125 -0.703125 -2.765625l0 -6.5l2.625 0l0 6.5625q0.015625 1.46875 0.96875 1.46875q0.90625 0 1.3125 -0.78125l0 -7.25l2.640625 0l0 10.03125l-2.46875 0l-0.078125 -0.921875zm3.901123 -4.40625q0 -2.46875 0.828125 -3.671875q0.828125 -1.21875 2.4375 -1.21875q1.15625 0 1.921875 1.0l0 -5.03125l2.640625 0l0 14.25l-2.375 0l-0.125 -1.015625q-0.8125 1.203125 -2.078125 1.203125q-1.578125 0 -2.40625 -1.203125q-0.828125 -1.21875 -0.84375 -3.546875l0 -0.765625zm2.625 0.65625q0 1.484375 0.3125 2.078125q0.328125 0.59375 1.078125 0.59375q0.78125 0 1.171875 -0.703125l0 -4.578125q-0.390625 -0.75 -1.171875 -0.75q-0.71875 0 -1.0625 0.59375q-0.328125 0.578125 -0.328125 2.078125l0 0.6875zm11.027374 4.859375q-2.03125 0 -3.171875 -1.203125q-1.125 -1.21875 -1.125 -3.453125l0 -0.796875q0 -2.375 1.03125 -3.65625q1.046875 -1.296875 2.984375 -1.296875q1.90625 0 2.859375 1.21875q0.953125 1.203125 0.96875 3.578125l0 1.28125l-5.21875 0q0.046875 1.109375 0.484375 1.625q0.4375 0.515625 1.34375 0.515625q1.328125 0 2.203125 -0.890625l1.03125 1.578125q-0.484375 0.671875 -1.40625 1.09375q-0.90625 0.40625 -1.984375 0.40625zm-1.65625 -6.15625l2.625 0l0 -0.25q-0.015625 -0.890625 -0.296875 -1.359375q-0.28125 -0.46875 -0.96875 -0.46875q-0.6875 0 -1.0 0.5q-0.296875 0.484375 -0.359375 1.578125zm8.927307 -4.0625l0.078125 0.984375q0.890625 -1.171875 2.328125 -1.171875q2.578125 0 2.65625 3.625l0 6.59375l-2.625 0l0 -6.40625q0 -0.84375 -0.265625 -1.234375q-0.25 -0.390625 -0.890625 -0.390625q-0.71875 0 -1.109375 0.734375l0 7.296875l-2.640625 0l0 -10.03125l2.46875 0zm9.838623 -2.46875l0 2.46875l1.34375 0l0 1.96875l-1.34375 0l0 4.984375q0 0.59375 0.15625 0.8125q0.15625 0.21875 0.625 0.21875q0.375 0 0.625 -0.0625l-0.015625 2.046875q-0.671875 0.25 -1.453125 0.25q-2.546875 0 -2.578125 -2.921875l0 -5.328125l-1.15625 0l0 -1.96875l1.15625 0l0 -2.46875l2.640625 0zm7.120514 9.8125q0 -0.34375 -0.328125 -0.625q-0.3125 -0.28125 -1.421875 -0.765625q-1.625 -0.65625 -2.234375 -1.359375q-0.609375 -0.703125 -0.609375 -1.75q0 -1.3125 0.953125 -2.171875q0.953125 -0.859375 2.515625 -0.859375q1.65625 0 2.640625 0.859375q1.0 0.84375 1.0 2.28125l-2.625 0q0 -1.21875 -1.015625 -1.21875q-0.421875 0 -0.6875 0.265625q-0.265625 0.25 -0.265625 0.71875q0 0.328125 0.296875 0.59375q0.296875 0.25 1.390625 0.71875q1.609375 0.59375 2.265625 1.328125q0.671875 0.71875 0.671875 1.875q0 1.34375 -1.015625 2.171875q-1.015625 0.8125 -2.65625 0.8125q-1.09375 0 -1.9375 -0.421875q-0.84375 -0.4375 -1.328125 -1.203125q-0.484375 -0.78125 -0.484375 -1.671875l2.5 0q0.015625 0.6875 0.3125 1.03125q0.3125 0.34375 1.0 0.34375q1.0625 0 1.0625 -0.953125zm11.38089 -9.8125l0 2.46875l1.34375 0l0 1.96875l-1.34375 0l0 4.984375q0 0.59375 0.15625 0.8125q0.15625 0.21875 0.625 0.21875q0.375 0 0.625 -0.0625l-0.015625 2.046875q-0.671875 0.25 -1.453125 0.25q-2.546875 0 -2.578125 -2.921875l0 -5.328125l-1.15625 0l0 -1.96875l1.15625 0l0 -2.46875l2.640625 0zm2.3704834 7.15625q0 -2.28125 1.0625 -3.578125q1.078125 -1.296875 2.984375 -1.296875q1.921875 0 3.0 1.296875q1.078125 1.296875 1.078125 3.59375l0 0.640625q0 2.296875 -1.078125 3.59375q-1.0625 1.28125 -2.984375 1.28125q-1.921875 0 -3.0 -1.296875q-1.0625 -1.296875 -1.0625 -3.59375l0 -0.640625zm2.625 0.65625q0 2.6875 1.4375 2.6875q1.328125 0 1.4375 -2.234375l0 -1.109375q0 -1.375 -0.375 -2.03125q-0.375 -0.671875 -1.078125 -0.671875q-0.671875 0 -1.046875 0.671875q-0.375 0.65625 -0.375 2.03125l0 0.65625zm20.006958 2.0q0 -0.34375 -0.328125 -0.625q-0.3125 -0.28125 -1.421875 -0.765625q-1.625 -0.65625 -2.234375 -1.359375q-0.609375 -0.703125 -0.609375 -1.75q0 -1.3125 0.953125 -2.171875q0.953125 -0.859375 2.515625 -0.859375q1.65625 0 2.640625 0.859375q1.0 0.84375 1.0 2.28125l-2.625 0q0 -1.21875 -1.015625 -1.21875q-0.421875 0 -0.6875 0.265625q-0.265625 0.25 -0.265625 0.71875q0 0.328125 0.296875 0.59375q0.296875 0.25 1.390625 0.71875q1.609375 0.59375 2.265625 1.328125q0.671875 0.71875 0.671875 1.875q0 1.34375 -1.015625 2.171875q-1.015625 0.8125 -2.65625 0.8125q-1.09375 0 -1.9375 -0.421875q-0.84375 -0.4375 -1.328125 -1.203125q-0.484375 -0.78125 -0.484375 -1.671875l2.5 0q0.015625 0.6875 0.3125 1.03125q0.3125 0.34375 1.0 0.34375q1.0625 0 1.0625 -0.953125zm7.0812073 -9.8125l0 2.46875l1.34375 0l0 1.96875l-1.34375 0l0 4.984375q0 0.59375 0.15625 0.8125q0.15625 0.21875 0.625 0.21875q0.375 0 0.625 -0.0625l-0.015625 2.046875q-0.671875 0.25 -1.453125 0.25q-2.546875 0 -2.578125 -2.921875l0 -5.328125l-1.15625 0l0 -1.96875l1.15625 0l0 -2.46875l2.640625 0zm6.7298584 12.6875q-2.03125 0 -3.171875 -1.203125q-1.125 -1.21875 -1.125 -3.453125l0 -0.796875q0 -2.375 1.03125 -3.65625q1.046875 -1.296875 2.984375 -1.296875q1.90625 0 2.859375 1.21875q0.953125 1.203125 0.96875 3.578125l0 1.28125l-5.21875 0q0.046875 1.109375 0.484375 1.625q0.4375 0.515625 1.34375 0.515625q1.328125 0 2.203125 -0.890625l1.03125 1.578125q-0.484375 0.671875 -1.40625 1.09375q-0.90625 0.40625 -1.984375 0.40625zm-1.65625 -6.15625l2.625 0l0 -0.25q-0.015625 -0.890625 -0.296875 -1.359375q-0.28125 -0.46875 -0.96875 -0.46875q-0.6875 0 -1.0 0.5q-0.296875 0.484375 -0.359375 1.578125zm14.349182 1.265625q0 2.359375 -0.8125 3.625q-0.8125 1.265625 -2.421875 1.265625q-1.21875 0 -1.96875 -1.0l0 4.671875l-2.625 0l0 -13.890625l2.4375 0l0.09375 0.90625q0.75 -1.09375 2.046875 -1.09375q1.609375 0 2.421875 1.171875q0.8125 1.15625 0.828125 3.578125l0 0.765625zm-2.625 -0.65625q0 -1.453125 -0.328125 -2.0625q-0.3125 -0.609375 -1.0625 -0.609375q-0.8125 0 -1.1875 0.6875l0 4.703125q0.359375 0.640625 1.203125 0.640625q0.78125 0 1.078125 -0.65625q0.296875 -0.65625 0.296875 -2.046875l0 -0.65625zm8.942963 5.359375l0 -8.0625l-1.21875 0l0 -1.96875l1.21875 0l0 -0.90625q0 -1.65625 0.859375 -2.578125q0.875 -0.921875 2.40625 -0.921875q0.46875 0 1.1875 0.171875l-0.015625 2.109375q-0.265625 -0.09375 -0.640625 -0.09375q-1.171875 0 -1.171875 1.390625l0 0.828125l1.578125 0l0 1.96875l-1.578125 0l0 8.0625l-2.625 0zm5.206238 -5.34375q0 -2.28125 1.0625 -3.578125q1.078125 -1.296875 2.984375 -1.296875q1.921875 0 3.0 1.296875q1.078125 1.296875 1.078125 3.59375l0 0.640625q0 2.296875 -1.078125 3.59375q-1.0625 1.28125 -2.984375 1.28125q-1.921875 0 -3.0 -1.296875q-1.0625 -1.296875 -1.0625 -3.59375l0 -0.640625zm2.625 0.65625q0 2.6875 1.4375 2.6875q1.328125 0 1.4375 -2.234375l0 -1.109375q0 -1.375 -0.375 -2.03125q-0.375 -0.671875 -1.078125 -0.671875q-0.671875 0 -1.046875 0.671875q-0.375 0.65625 -0.375 2.03125l0 0.65625zm11.907593 -2.8125l-0.875 -0.078125q-1.0625 0 -1.453125 0.9375l0 6.640625l-2.625 0l0 -10.03125l2.46875 0l0.078125 1.078125q0.625 -1.265625 1.71875 -1.265625q0.4375 0 0.71875 0.109375l-0.03125 2.609375zm8.544678 3.09375l0.90625 -5.625l2.515625 0l-2.078125 10.03125l-2.1875 0l-1.421875 -5.8125l-1.421875 5.8125l-2.1875 0l-2.078125 -10.03125l2.53125 0l0.890625 5.640625l1.328125 -5.640625l1.875 0l1.328125 5.625zm9.259033 4.40625q-0.109375 -0.234375 -0.21875 -0.78125q-0.703125 0.96875 -1.90625 0.96875q-1.265625 0 -2.09375 -0.828125q-0.828125 -0.84375 -0.828125 -2.171875q0 -1.578125 1.0 -2.4375q1.015625 -0.859375 2.90625 -0.875l0.796875 0l0 -0.8125q0 -0.671875 -0.234375 -0.953125q-0.234375 -0.28125 -0.671875 -0.28125q-0.984375 0 -0.984375 1.15625l-2.625 0q0 -1.40625 1.03125 -2.296875q1.046875 -0.90625 2.640625 -0.90625q1.65625 0 2.5625 0.859375q0.90625 0.859375 0.90625 2.453125l0 4.71875q0.015625 1.296875 0.375 2.03125l0 0.15625l-2.65625 0zm-1.546875 -1.875q0.4375 0 0.734375 -0.171875q0.3125 -0.1875 0.46875 -0.421875l0 -2.09375l-0.640625 0q-0.65625 0 -1.046875 0.4375q-0.390625 0.421875 -0.390625 1.140625q0 1.109375 0.875 1.109375zm10.51593 -5.625l-0.875 -0.078125q-1.0625 0 -1.453125 0.9375l0 6.640625l-2.625 0l0 -10.03125l2.46875 0l0.078125 1.078125q0.625 -1.265625 1.71875 -1.265625q0.4375 0 0.71875 0.109375l-0.03125 2.609375zm0.88848877 2.171875q0 -2.46875 0.828125 -3.671875q0.828125 -1.21875 2.4375 -1.21875q1.15625 0 1.921875 1.0l0 -5.03125l2.640625 0l0 14.25l-2.375 0l-0.125 -1.015625q-0.8125 1.203125 -2.078125 1.203125q-1.578125 0 -2.40625 -1.203125q-0.828125 -1.21875 -0.84375 -3.546875l0 -0.765625zm2.625 0.65625q0 1.484375 0.3125 2.078125q0.328125 0.59375 1.078125 0.59375q0.78125 0 1.171875 -0.703125l0 -4.578125q-0.390625 -0.75 -1.171875 -0.75q-0.71875 0 -1.0625 0.59375q-0.328125 0.578125 -0.328125 2.078125l0 0.6875zm14.030212 4.671875l-2.640625 0l0 -10.03125l2.640625 0l0 10.03125zm-2.765625 -12.640625q0 -0.609375 0.390625 -1.0q0.390625 -0.390625 1.03125 -0.390625q0.65625 0 1.046875 0.390625q0.390625 0.390625 0.390625 1.0q0 0.609375 -0.390625 1.015625q-0.375 0.390625 -1.046875 0.390625q-0.65625 0 -1.046875 -0.390625q-0.375 -0.40625 -0.375 -1.015625zm7.1067505 2.609375l0.078125 0.984375q0.890625 -1.171875 2.328125 -1.171875q2.578125 0 2.65625 3.625l0 6.59375l-2.625 0l0 -6.40625q0 -0.84375 -0.265625 -1.234375q-0.25 -0.390625 -0.890625 -0.390625q-0.71875 0 -1.109375 0.734375l0 7.296875l-2.640625 0l0 -10.03125l2.46875 0zm14.138306 -2.46875l0 2.46875l1.34375 0l0 1.96875l-1.34375 0l0 4.984375q0 0.59375 0.15625 0.8125q0.15625 0.21875 0.625 0.21875q0.375 0 0.625 -0.0625l-0.015625 2.046875q-0.671875 0.25 -1.453125 0.25q-2.546875 0 -2.578125 -2.921875l0 -5.328125l-1.15625 0l0 -1.96875l1.15625 0l0 -2.46875l2.640625 0zm5.2298584 3.34375q0.859375 -1.0625 2.09375 -1.0625q1.375 0 2.09375 0.96875q0.71875 0.953125 0.71875 2.859375l0 6.390625l-2.625 0l0 -6.359375q0 -0.875 -0.28125 -1.265625q-0.28125 -0.40625 -0.890625 -0.40625q-0.703125 0 -1.109375 0.671875l0 7.359375l-2.625 0l0 -14.25l2.625 0l0 5.09375zm10.682373 9.34375q-2.03125 0 -3.171875 -1.203125q-1.125 -1.21875 -1.125 -3.453125l0 -0.796875q0 -2.375 1.03125 -3.65625q1.046875 -1.296875 2.984375 -1.296875q1.90625 0 2.859375 1.21875q0.953125 1.203125 0.96875 3.578125l0 1.28125l-5.21875 0q0.046875 1.109375 0.484375 1.625q0.4375 0.515625 1.34375 0.515625q1.328125 0 2.203125 -0.890625l1.03125 1.578125q-0.484375 0.671875 -1.40625 1.09375q-0.90625 0.40625 -1.984375 0.40625zm-1.65625 -6.15625l2.625 0l0 -0.25q-0.015625 -0.890625 -0.296875 -1.359375q-0.28125 -0.46875 -0.96875 -0.46875q-0.6875 0 -1.0 0.5q-0.296875 0.484375 -0.359375 1.578125zm14.88324 6.15625q-2.03125 0 -3.171875 -1.203125q-1.125 -1.21875 -1.125 -3.453125l0 -0.796875q0 -2.375 1.03125 -3.65625q1.046875 -1.296875 2.984375 -1.296875q1.90625 0 2.859375 1.21875q0.953125 1.203125 0.96875 3.578125l0 1.28125l-5.21875 0q0.046875 1.109375 0.484375 1.625q0.4375 0.515625 1.34375 0.515625q1.328125 0 2.203125 -0.890625l1.03125 1.578125q-0.484375 0.671875 -1.40625 1.09375q-0.90625 0.40625 -1.984375 0.40625zm-1.65625 -6.15625l2.625 0l0 -0.25q-0.015625 -0.890625 -0.296875 -1.359375q-0.28125 -0.46875 -0.96875 -0.46875q-0.6875 0 -1.0 0.5q-0.296875 0.484375 -0.359375 1.578125zm7.130432 5.96875l0 -8.0625l-1.21875 0l0 -1.96875l1.21875 0l0 -0.90625q0 -1.65625 0.859375 -2.578125q0.875 -0.921875 2.40625 -0.921875q0.46875 0 1.1875 0.171875l-0.015625 2.109375q-0.265625 -0.09375 -0.640625 -0.09375q-1.171875 0 -1.171875 1.390625l0 0.828125l1.578125 0l0 1.96875l-1.578125 0l0 8.0625l-2.625 0zm6.112488 0l0 -8.0625l-1.21875 0l0 -1.96875l1.21875 0l0 -0.90625q0 -1.65625 0.859375 -2.578125q0.875 -0.921875 2.40625 -0.921875q0.46875 0 1.1875 0.171875l-0.015625 2.109375q-0.265625 -0.09375 -0.640625 -0.09375q-1.171875 0 -1.171875 1.390625l0 0.828125l1.578125 0l0 1.96875l-1.578125 0l0 8.0625l-2.625 0zm5.206238 -5.34375q0 -2.28125 1.0625 -3.578125q1.078125 -1.296875 2.984375 -1.296875q1.921875 0 3.0 1.296875q1.078125 1.296875 1.078125 3.59375l0 0.640625q0 2.296875 -1.078125 3.59375q-1.0625 1.28125 -2.984375 1.28125q-1.921875 0 -3.0 -1.296875q-1.0625 -1.296875 -1.0625 -3.59375l0 -0.640625zm2.625 0.65625q0 2.6875 1.4375 2.6875q1.328125 0 1.4375 -2.234375l0 -1.109375q0 -1.375 -0.375 -2.03125q-0.375 -0.671875 -1.078125 -0.671875q-0.671875 0 -1.046875 0.671875q-0.375 0.65625 -0.375 2.03125l0 0.65625zm11.907593 -2.8125l-0.875 -0.078125q-1.0625 0 -1.453125 0.9375l0 6.640625l-2.625 0l0 -10.03125l2.46875 0l0.078125 1.078125q0.625 -1.265625 1.71875 -1.265625q0.4375 0 0.71875 0.109375l-0.03125 2.609375zm4.294739 -5.0l0 2.46875l1.34375 0l0 1.96875l-1.34375 0l0 4.984375q0 0.59375 0.15625 0.8125q0.15625 0.21875 0.625 0.21875q0.375 0 0.625 -0.0625l-0.015625 2.046875q-0.671875 0.25 -1.453125 0.25q-2.546875 0 -2.578125 -2.921875l0 -5.328125l-1.15625 0l0 -1.96875l1.15625 0l0 -2.46875l2.640625 0zm10.029541 0l0 2.46875l1.34375 0l0 1.96875l-1.34375 0l0 4.984375q0 0.59375 0.15625 0.8125q0.15625 0.21875 0.625 0.21875q0.375 0 0.625 -0.0625l-0.015625 2.046875q-0.671875 0.25 -1.453125 0.25q-2.546875 0 -2.578125 -2.921875l0 -5.328125l-1.15625 0l0 -1.96875l1.15625 0l0 -2.46875l2.640625 0zm2.3704834 7.15625q0 -2.28125 1.0625 -3.578125q1.078125 -1.296875 2.984375 -1.296875q1.921875 0 3.0 1.296875q1.078125 1.296875 1.078125 3.59375l0 0.640625q0 2.296875 -1.078125 3.59375q-1.0625 1.28125 -2.984375 1.28125q-1.921875 0 -3.0 -1.296875q-1.0625 -1.296875 -1.0625 -3.59375l0 -0.640625zm2.625 0.65625q0 2.6875 1.4375 2.6875q1.328125 0 1.4375 -2.234375l0 -1.109375q0 -1.375 -0.375 -2.03125q-0.375 -0.671875 -1.078125 -0.671875q-0.671875 0 -1.046875 0.671875q-0.375 0.65625 -0.375 2.03125l0 0.65625zm10.94165 -0.640625q0 -2.46875 0.890625 -3.671875q0.890625 -1.21875 2.5 -1.21875q1.359375 0 2.09375 1.078125l0.109375 -0.890625l2.359375 0l0 10.03125q0 1.921875 -1.078125 2.9375q-1.0625 1.015625 -3.078125 1.015625q-0.828125 0 -1.734375 -0.328125q-0.90625 -0.328125 -1.359375 -0.84375l0.890625 -1.8125q0.359375 0.390625 0.953125 0.625q0.59375 0.25 1.125 0.25q0.890625 0 1.265625 -0.421875q0.390625 -0.421875 0.390625 -1.359375l0 -0.859375q-0.75 0.984375 -1.953125 0.984375q-1.609375 0 -2.484375 -1.25q-0.875 -1.25 -0.890625 -3.515625l0 -0.75zm2.625 0.65625q0 1.390625 0.359375 2.03125q0.359375 0.640625 1.15625 0.640625q0.796875 0 1.1875 -0.59375l0 -4.796875q-0.40625 -0.640625 -1.171875 -0.640625q-0.78125 0 -1.15625 0.640625q-0.375 0.640625 -0.375 2.0625l0 0.65625zm11.1328125 4.859375q-2.03125 0 -3.171875 -1.203125q-1.125 -1.21875 -1.125 -3.453125l0 -0.796875q0 -2.375 1.03125 -3.65625q1.046875 -1.296875 2.984375 -1.296875q1.90625 0 2.859375 1.21875q0.953125 1.203125 0.96875 3.578125l0 1.28125l-5.21875 0q0.046875 1.109375 0.484375 1.625q0.4375 0.515625 1.34375 0.515625q1.328125 0 2.203125 -0.890625l1.03125 1.578125q-0.484375 0.671875 -1.40625 1.09375q-0.90625 0.40625 -1.984375 0.40625zm-1.65625 -6.15625l2.625 0l0 -0.25q-0.015625 -0.890625 -0.296875 -1.359375q-0.28125 -0.46875 -0.96875 -0.46875q-0.6875 0 -1.0 0.5q-0.296875 0.484375 -0.359375 1.578125zm9.583557 -6.53125l0 2.46875l1.34375 0l0 1.96875l-1.34375 0l0 4.984375q0 0.59375 0.15625 0.8125q0.15625 0.21875 0.625 0.21875q0.375 0 0.625 -0.0625l-0.015625 2.046875q-0.671875 0.25 -1.453125 0.25q-2.546875 0 -2.578125 -2.921875l0 -5.328125l-1.15625 0l0 -1.96875l1.15625 0l0 -2.46875l2.640625 0z" fill-rule="nonzero"></path><path fill="#ffffff" d="m336.4355 186.67l0 4.75l-2.734375 0l0 -13.515625l4.609375 0q2.0 0 3.1875 1.25q1.203125 1.25 1.203125 3.234375q0 1.984375 -1.1875 3.140625q-1.171875 1.140625 -3.265625 1.140625l-1.8125 0zm0 -2.265625l1.875 0q0.78125 0 1.203125 -0.515625q0.421875 -0.515625 0.421875 -1.484375q0 -1.015625 -0.4375 -1.609375q-0.421875 -0.59375 -1.15625 -0.609375l-1.90625 0l0 4.21875zm7.4563293 1.671875q0 -2.28125 1.0625 -3.578125q1.078125 -1.296875 2.984375 -1.296875q1.921875 0 3.0 1.296875q1.078125 1.296875 1.078125 3.59375l0 0.640625q0 2.296875 -1.078125 3.59375q-1.0625 1.28125 -2.984375 1.28125q-1.921875 0 -3.0 -1.296875q-1.0625 -1.296875 -1.0625 -3.59375l0 -0.640625zm2.625 0.65625q0 2.6875 1.4375 2.6875q1.328125 0 1.4375 -2.234375l0 -1.109375q0 -1.375 -0.375 -2.03125q-0.375 -0.671875 -1.078125 -0.671875q-0.671875 0 -1.046875 0.671875q-0.375 0.65625 -0.375 2.03125l0 0.65625zm11.907562 -2.8125l-0.875 -0.078125q-1.0625 0 -1.453125 0.9375l0 6.640625l-2.625 0l0 -10.03125l2.46875 0l0.078125 1.078125q0.625 -1.265625 1.71875 -1.265625q0.4375 0 0.71875 0.109375l-0.03125 2.609375zm4.294739 -5.0l0 2.46875l1.34375 0l0 1.96875l-1.34375 0l0 4.984375q0 0.59375 0.15625 0.8125q0.15625 0.21875 0.625 0.21875q0.375 0 0.625 -0.0625l-0.015625 2.046875q-0.671875 0.25 -1.453125 0.25q-2.546875 0 -2.578125 -2.921875l0 -5.328125l-1.15625 0l0 -1.96875l1.15625 0l0 -2.46875l2.640625 0zm5.4329834 12.5l-2.640625 0l0 -14.25l2.640625 0l0 14.25zm6.7005005 0q-0.109375 -0.234375 -0.21875 -0.78125q-0.703125 0.96875 -1.90625 0.96875q-1.265625 0 -2.09375 -0.828125q-0.828125 -0.84375 -0.828125 -2.171875q0 -1.578125 1.0 -2.4375q1.015625 -0.859375 2.90625 -0.875l0.796875 0l0 -0.8125q0 -0.671875 -0.234375 -0.953125q-0.234375 -0.28125 -0.671875 -0.28125q-0.984375 0 -0.984375 1.15625l-2.625 0q0 -1.40625 1.03125 -2.296875q1.046875 -0.90625 2.640625 -0.90625q1.65625 0 2.5625 0.859375q0.90625 0.859375 0.90625 2.453125l0 4.71875q0.015625 1.296875 0.375 2.03125l0 0.15625l-2.65625 0zm-1.546875 -1.875q0.4375 0 0.734375 -0.171875q0.3125 -0.1875 0.46875 -0.421875l0 -2.09375l-0.640625 0q-0.65625 0 -1.046875 0.4375q-0.390625 0.421875 -0.390625 1.140625q0 1.109375 0.875 1.109375zm7.969055 -8.15625l0.078125 0.984375q0.890625 -1.171875 2.328125 -1.171875q2.578125 0 2.65625 3.625l0 6.59375l-2.625 0l0 -6.40625q0 -0.84375 -0.265625 -1.234375q-0.25 -0.390625 -0.890625 -0.390625q-0.71875 0 -1.109375 0.734375l0 7.296875l-2.640625 0l0 -10.03125l2.46875 0zm6.432373 4.703125q0 -2.46875 0.828125 -3.671875q0.828125 -1.21875 2.4375 -1.21875q1.15625 0 1.921875 1.0l0 -5.03125l2.640625 0l0 14.25l-2.375 0l-0.125 -1.015625q-0.8125 1.203125 -2.078125 1.203125q-1.578125 0 -2.40625 -1.203125q-0.828125 -1.21875 -0.84375 -3.546875l0 -0.765625zm2.625 0.65625q0 1.484375 0.3125 2.078125q0.328125 0.59375 1.078125 0.59375q0.78125 0 1.171875 -0.703125l0 -4.578125q-0.390625 -0.75 -1.171875 -0.75q-0.71875 0 -1.0625 0.59375q-0.328125 0.578125 -0.328125 2.078125l0 0.6875zm14.123962 -0.078125l0 4.75l-2.734375 0l0 -13.515625l4.609375 0q2.0 0 3.1875 1.25q1.203125 1.25 1.203125 3.234375q0 1.984375 -1.1875 3.140625q-1.171875 1.140625 -3.265625 1.140625l-1.8125 0zm0 -2.265625l1.875 0q0.78125 0 1.203125 -0.515625q0.421875 -0.515625 0.421875 -1.484375q0 -1.015625 -0.4375 -1.609375q-0.421875 -0.59375 -1.15625 -0.609375l-1.90625 0l0 4.21875zm12.690674 6.09375q-0.8125 1.109375 -2.1875 1.109375q-1.390625 0 -2.109375 -0.953125q-0.703125 -0.953125 -0.703125 -2.765625l0 -6.5l2.625 0l0 6.5625q0.015625 1.46875 0.96875 1.46875q0.90625 0 1.3125 -0.78125l0 -7.25l2.640625 0l0 10.03125l-2.46875 0l-0.078125 -0.921875zm12.072998 -3.765625q0 2.4375 -0.78125 3.65625q-0.765625 1.21875 -2.4375 1.21875q-1.3125 0 -2.109375 -1.1875l-0.078125 1.0l-2.421875 0l0 -14.25l2.625 0l0 5.03125q0.75 -1.0 1.953125 -1.0q1.671875 0 2.453125 1.21875q0.78125 1.203125 0.796875 3.53125l0 0.78125zm-2.625 -0.671875q0 -1.578125 -0.3125 -2.125q-0.296875 -0.546875 -1.0625 -0.546875q-0.8125 0 -1.203125 0.75l0 4.578125q0.359375 0.703125 1.234375 0.703125q0.75 0 1.03125 -0.484375q0.296875 -0.5 0.3125 -1.90625l0 -0.96875zm6.79953 5.359375l-2.640625 0l0 -14.25l2.640625 0l0 14.25zm4.7005005 0l-2.640625 0l0 -10.03125l2.640625 0l0 10.03125zm-2.765625 -12.640625q0 -0.609375 0.390625 -1.0q0.390625 -0.390625 1.03125 -0.390625q0.65625 0 1.046875 0.390625q0.390625 0.390625 0.390625 1.0q0 0.609375 -0.390625 1.015625q-0.375 0.390625 -1.046875 0.390625q-0.65625 0 -1.046875 -0.390625q-0.375 -0.40625 -0.375 -1.015625zm8.3255005 10.640625q1.140625 0 1.171875 -1.484375l2.453125 0q-0.015625 1.640625 -1.015625 2.65625q-0.984375 1.015625 -2.546875 1.015625q-1.9375 0 -2.96875 -1.203125q-1.015625 -1.21875 -1.03125 -3.5625l0 -0.796875q0 -2.359375 1.0 -3.59375q1.015625 -1.25 2.984375 -1.25q1.65625 0 2.609375 1.03125q0.953125 1.015625 0.96875 2.890625l-2.453125 0q-0.015625 -0.84375 -0.28125 -1.296875q-0.265625 -0.453125 -0.890625 -0.453125q-0.6875 0 -0.984375 0.5q-0.296875 0.484375 -0.3125 1.875l0 1.03125q0 1.21875 0.109375 1.703125q0.125 0.484375 0.40625 0.71875q0.28125 0.21875 0.78125 0.21875zm15.099579 -1.546875q0 -0.828125 -0.421875 -1.25q-0.421875 -0.421875 -1.546875 -0.875q-2.03125 -0.765625 -2.921875 -1.796875q-0.890625 -1.03125 -0.890625 -2.453125q0 -1.703125 1.203125 -2.734375q1.21875 -1.03125 3.09375 -1.03125q1.234375 0 2.203125 0.53125q0.984375 0.515625 1.5 1.46875q0.53125 0.953125 0.53125 2.171875l-2.71875 0q0 -0.953125 -0.40625 -1.4375q-0.40625 -0.5 -1.15625 -0.5q-0.71875 0 -1.125 0.421875q-0.390625 0.421875 -0.390625 1.125q0 0.5625 0.4375 1.015625q0.453125 0.453125 1.578125 0.9375q1.984375 0.703125 2.875 1.75q0.890625 1.03125 0.890625 2.640625q0 1.765625 -1.125 2.765625q-1.109375 0.984375 -3.046875 0.984375q-1.3125 0 -2.390625 -0.53125q-1.0625 -0.546875 -1.671875 -1.546875q-0.609375 -1.0 -0.609375 -2.375l2.734375 0q0 1.171875 0.453125 1.703125q0.453125 0.53125 1.484375 0.53125q1.4375 0 1.4375 -1.515625zm7.8563538 1.546875q1.140625 0 1.171875 -1.484375l2.453125 0q-0.015625 1.640625 -1.015625 2.65625q-0.984375 1.015625 -2.546875 1.015625q-1.9375 0 -2.96875 -1.203125q-1.015625 -1.21875 -1.03125 -3.5625l0 -0.796875q0 -2.359375 1.0 -3.59375q1.015625 -1.25 2.984375 -1.25q1.65625 0 2.609375 1.03125q0.953125 1.015625 0.96875 2.890625l-2.453125 0q-0.015625 -0.84375 -0.28125 -1.296875q-0.265625 -0.453125 -0.890625 -0.453125q-0.6875 0 -0.984375 0.5q-0.296875 0.484375 -0.3125 1.875l0 1.03125q0 1.21875 0.109375 1.703125q0.125 0.484375 0.40625 0.71875q0.28125 0.21875 0.78125 0.21875zm7.5186462 -7.15625q0.859375 -1.0625 2.09375 -1.0625q1.375 0 2.09375 0.96875q0.71875 0.953125 0.71875 2.859375l0 6.390625l-2.625 0l0 -6.359375q0 -0.875 -0.28125 -1.265625q-0.28125 -0.40625 -0.890625 -0.40625q-0.703125 0 -1.109375 0.671875l0 7.359375l-2.625 0l0 -14.25l2.625 0l0 5.09375zm6.322998 3.8125q0 -2.28125 1.0625 -3.578125q1.078125 -1.296875 2.984375 -1.296875q1.921875 0 3.0 1.296875q1.078125 1.296875 1.078125 3.59375l0 0.640625q0 2.296875 -1.078125 3.59375q-1.0625 1.28125 -2.984375 1.28125q-1.921875 0 -3.0 -1.296875q-1.0625 -1.296875 -1.0625 -3.59375l0 -0.640625zm2.625 0.65625q0 2.6875 1.4375 2.6875q1.328125 0 1.4375 -2.234375l0 -1.109375q0 -1.375 -0.375 -2.03125q-0.375 -0.671875 -1.078125 -0.671875q-0.671875 0 -1.046875 0.671875q-0.375 0.65625 -0.375 2.03125l0 0.65625zm6.657593 -0.65625q0 -2.28125 1.0625 -3.578125q1.078125 -1.296875 2.984375 -1.296875q1.921875 0 3.0 1.296875q1.078125 1.296875 1.078125 3.59375l0 0.640625q0 2.296875 -1.078125 3.59375q-1.0625 1.28125 -2.984375 1.28125q-1.921875 0 -3.0 -1.296875q-1.0625 -1.296875 -1.0625 -3.59375l0 -0.640625zm2.625 0.65625q0 2.6875 1.4375 2.6875q1.328125 0 1.4375 -2.234375l0 -1.109375q0 -1.375 -0.375 -2.03125q-0.375 -0.671875 -1.078125 -0.671875q-0.671875 0 -1.046875 0.671875q-0.375 0.65625 -0.375 2.03125l0 0.65625zm9.720062 4.6875l-2.640625 0l0 -14.25l2.640625 0l0 14.25zm6.3880005 -2.6875q0 -0.34375 -0.328125 -0.625q-0.3125 -0.28125 -1.421875 -0.765625q-1.625 -0.65625 -2.234375 -1.359375q-0.609375 -0.703125 -0.609375 -1.75q0 -1.3125 0.953125 -2.171875q0.953125 -0.859375 2.515625 -0.859375q1.65625 0 2.640625 0.859375q1.0 0.84375 1.0 2.28125l-2.625 0q0 -1.21875 -1.015625 -1.21875q-0.421875 0 -0.6875 0.265625q-0.265625 0.25 -0.265625 0.71875q0 0.328125 0.296875 0.59375q0.296875 0.25 1.390625 0.71875q1.609375 0.59375 2.265625 1.328125q0.671875 0.71875 0.671875 1.875q0 1.34375 -1.015625 2.171875q-1.015625 0.8125 -2.65625 0.8125q-1.09375 0 -1.9375 -0.421875q-0.84375 -0.4375 -1.328125 -1.203125q-0.484375 -0.78125 -0.484375 -1.671875l2.5 0q0.015625 0.6875 0.3125 1.03125q0.3125 0.34375 1.0 0.34375q1.0625 0 1.0625 -0.953125zm11.38089 -9.8125l0 2.46875l1.34375 0l0 1.96875l-1.34375 0l0 4.984375q0 0.59375 0.15625 0.8125q0.15625 0.21875 0.625 0.21875q0.375 0 0.625 -0.0625l-0.015625 2.046875q-0.671875 0.25 -1.453125 0.25q-2.546875 0 -2.578125 -2.921875l0 -5.328125l-1.15625 0l0 -1.96875l1.15625 0l0 -2.46875l2.640625 0zm2.3704834 7.15625q0 -2.28125 1.0625 -3.578125q1.078125 -1.296875 2.984375 -1.296875q1.921875 0 3.0 1.296875q1.078125 1.296875 1.078125 3.59375l0 0.640625q0 2.296875 -1.078125 3.59375q-1.0625 1.28125 -2.984375 1.28125q-1.921875 0 -3.0 -1.296875q-1.0625 -1.296875 -1.0625 -3.59375l0 -0.640625zm2.625 0.65625q0 2.6875 1.4375 2.6875q1.328125 0 1.4375 -2.234375l0 -1.109375q0 -1.375 -0.375 -2.03125q-0.375 -0.671875 -1.078125 -0.671875q-0.671875 0 -1.046875 0.671875q-0.375 0.65625 -0.375 2.03125l0 0.65625zm14.31665 -7.8125l0 2.46875l1.34375 0l0 1.96875l-1.34375 0l0 4.984375q0 0.59375 0.15625 0.8125q0.15625 0.21875 0.625 0.21875q0.375 0 0.625 -0.0625l-0.015625 2.046875q-0.671875 0.25 -1.453125 0.25q-2.546875 0 -2.578125 -2.921875l0 -5.328125l-1.15625 0l0 -1.96875l1.15625 0l0 -2.46875l2.640625 0zm7.4329834 12.5q-0.109375 -0.234375 -0.21875 -0.78125q-0.703125 0.96875 -1.90625 0.96875q-1.265625 0 -2.09375 -0.828125q-0.828125 -0.84375 -0.828125 -2.171875q0 -1.578125 1.0 -2.4375q1.015625 -0.859375 2.90625 -0.875l0.796875 0l0 -0.8125q0 -0.671875 -0.234375 -0.953125q-0.234375 -0.28125 -0.671875 -0.28125q-0.984375 0 -0.984375 1.15625l-2.625 0q0 -1.40625 1.03125 -2.296875q1.046875 -0.90625 2.640625 -0.90625q1.65625 0 2.5625 0.859375q0.90625 0.859375 0.90625 2.453125l0 4.71875q0.015625 1.296875 0.375 2.03125l0 0.15625l-2.65625 0zm-1.546875 -1.875q0.4375 0 0.734375 -0.171875q0.3125 -0.1875 0.46875 -0.421875l0 -2.09375l-0.640625 0q-0.65625 0 -1.046875 0.4375q-0.390625 0.421875 -0.390625 1.140625q0 1.109375 0.875 1.109375zm8.89093 -2.0l-0.703125 0.796875l0 3.078125l-2.625 0l0 -14.25l2.625 0l0 7.703125l0.328125 -0.484375l1.8125 -3.0l3.125 0l-2.90625 4.125l3.1875 5.90625l-3.0 0l-1.84375 -3.875zm9.661682 4.0625q-2.03125 0 -3.171875 -1.203125q-1.125 -1.21875 -1.125 -3.453125l0 -0.796875q0 -2.375 1.03125 -3.65625q1.046875 -1.296875 2.984375 -1.296875q1.90625 0 2.859375 1.21875q0.953125 1.203125 0.96875 3.578125l0 1.28125l-5.21875 0q0.046875 1.109375 0.484375 1.625q0.4375 0.515625 1.34375 0.515625q1.328125 0 2.203125 -0.890625l1.03125 1.578125q-0.484375 0.671875 -1.40625 1.09375q-0.90625 0.40625 -1.984375 0.40625zm-1.65625 -6.15625l2.625 0l0 -0.25q-0.015625 -0.890625 -0.296875 -1.359375q-0.28125 -0.46875 -0.96875 -0.46875q-0.6875 0 -1.0 0.5q-0.296875 0.484375 -0.359375 1.578125zm15.586365 5.96875q-0.109375 -0.234375 -0.21875 -0.78125q-0.703125 0.96875 -1.90625 0.96875q-1.265625 0 -2.09375 -0.828125q-0.828125 -0.84375 -0.828125 -2.171875q0 -1.578125 1.0 -2.4375q1.015625 -0.859375 2.90625 -0.875l0.796875 0l0 -0.8125q0 -0.671875 -0.234375 -0.953125q-0.234375 -0.28125 -0.671875 -0.28125q-0.984375 0 -0.984375 1.15625l-2.625 0q0 -1.40625 1.03125 -2.296875q1.046875 -0.90625 2.640625 -0.90625q1.65625 0 2.5625 0.859375q0.90625 0.859375 0.90625 2.453125l0 4.71875q0.015625 1.296875 0.375 2.03125l0 0.15625l-2.65625 0zm-1.546875 -1.875q0.4375 0 0.734375 -0.171875q0.3125 -0.1875 0.46875 -0.421875l0 -2.09375l-0.640625 0q-0.65625 0 -1.046875 0.4375q-0.390625 0.421875 -0.390625 1.140625q0 1.109375 0.875 1.109375zm12.331238 -8.15625l0.078125 0.921875q0.875 -1.109375 2.328125 -1.109375q1.5 0 2.125 1.34375q0.859375 -1.34375 2.453125 -1.34375q2.640625 0 2.703125 3.640625l0 6.578125l-2.625 0l0 -6.40625q0 -0.875 -0.25 -1.25q-0.234375 -0.375 -0.8125 -0.375q-0.734375 0 -1.09375 0.90625l0.015625 0.3125l0 6.8125l-2.625 0l0 -6.390625q0 -0.859375 -0.234375 -1.25q-0.21875 -0.390625 -0.8125 -0.390625q-0.6875 0 -1.078125 0.734375l0 7.296875l-2.625 0l0 -10.03125l2.453125 0zm11.071716 4.6875q0 -2.28125 1.0625 -3.578125q1.078125 -1.296875 2.984375 -1.296875q1.921875 0 3.0 1.296875q1.078125 1.296875 1.078125 3.59375l0 0.640625q0 2.296875 -1.078125 3.59375q-1.0625 1.28125 -2.984375 1.28125q-1.921875 0 -3.0 -1.296875q-1.0625 -1.296875 -1.0625 -3.59375l0 -0.640625zm2.625 0.65625q0 2.6875 1.4375 2.6875q1.328125 0 1.4375 -2.234375l0 -1.109375q0 -1.375 -0.375 -2.03125q-0.375 -0.671875 -1.078125 -0.671875q-0.671875 0 -1.046875 0.671875q-0.375 0.65625 -0.375 2.03125l0 0.65625zm11.907593 -2.8125l-0.875 -0.078125q-1.0625 0 -1.453125 0.9375l0 6.640625l-2.625 0l0 -10.03125l2.46875 0l0.078125 1.078125q0.625 -1.265625 1.71875 -1.265625q0.4375 0 0.71875 0.109375l-0.03125 2.609375zm5.294739 7.6875q-2.03125 0 -3.171875 -1.203125q-1.125 -1.21875 -1.125 -3.453125l0 -0.796875q0 -2.375 1.03125 -3.65625q1.046875 -1.296875 2.984375 -1.296875q1.90625 0 2.859375 1.21875q0.953125 1.203125 0.96875 3.578125l0 1.28125l-5.21875 0q0.046875 1.109375 0.484375 1.625q0.4375 0.515625 1.34375 0.515625q1.328125 0 2.203125 -0.890625l1.03125 1.578125q-0.484375 0.671875 -1.40625 1.09375q-0.90625 0.40625 -1.984375 0.40625zm-1.65625 -6.15625l2.625 0l0 -0.25q-0.015625 -0.890625 -0.296875 -1.359375q-0.28125 -0.46875 -0.96875 -0.46875q-0.6875 0 -1.0 0.5q-0.296875 0.484375 -0.359375 1.578125zm15.586365 5.96875q-0.109375 -0.234375 -0.21875 -0.78125q-0.703125 0.96875 -1.90625 0.96875q-1.265625 0 -2.09375 -0.828125q-0.828125 -0.84375 -0.828125 -2.171875q0 -1.578125 1.0 -2.4375q1.015625 -0.859375 2.90625 -0.875l0.796875 0l0 -0.8125q0 -0.671875 -0.234375 -0.953125q-0.234375 -0.28125 -0.671875 -0.28125q-0.984375 0 -0.984375 1.15625l-2.625 0q0 -1.40625 1.03125 -2.296875q1.046875 -0.90625 2.640625 -0.90625q1.65625 0 2.5625 0.859375q0.90625 0.859375 0.90625 2.453125l0 4.71875q0.015625 1.296875 0.375 2.03125l0 0.15625l-2.65625 0zm-1.546875 -1.875q0.4375 0 0.734375 -0.171875q0.3125 -0.1875 0.46875 -0.421875l0 -2.09375l-0.640625 0q-0.65625 0 -1.046875 0.4375q-0.390625 0.421875 -0.390625 1.140625q0 1.109375 0.875 1.109375zm6.17218 1.875l0 -8.0625l-1.21875 0l0 -1.96875l1.21875 0l0 -0.90625q0 -1.65625 0.859375 -2.578125q0.875 -0.921875 2.40625 -0.921875q0.46875 0 1.1875 0.171875l-0.015625 2.109375q-0.265625 -0.09375 -0.640625 -0.09375q-1.171875 0 -1.171875 1.390625l0 0.828125l1.578125 0l0 1.96875l-1.578125 0l0 8.0625l-2.625 0zm6.112488 0l0 -8.0625l-1.21875 0l0 -1.96875l1.21875 0l0 -0.90625q0 -1.65625 0.859375 -2.578125q0.875 -0.921875 2.40625 -0.921875q0.46875 0 1.1875 0.171875l-0.015625 2.109375q-0.265625 -0.09375 -0.640625 -0.09375q-1.171875 0 -1.171875 1.390625l0 0.828125l1.578125 0l0 1.96875l-1.578125 0l0 8.0625l-2.625 0zm8.268738 0l-2.640625 0l0 -10.03125l2.640625 0l0 10.03125zm-2.765625 -12.640625q0 -0.609375 0.390625 -1.0q0.390625 -0.390625 1.03125 -0.390625q0.65625 0 1.046875 0.390625q0.390625 0.390625 0.390625 1.0q0 0.609375 -0.390625 1.015625q-0.375 0.390625 -1.046875 0.390625q-0.65625 0 -1.046875 -0.390625q-0.375 -0.40625 -0.375 -1.015625zm9.6536255 5.140625l-0.875 -0.078125q-1.0625 0 -1.453125 0.9375l0 6.640625l-2.625 0l0 -10.03125l2.46875 0l0.078125 1.078125q0.625 -1.265625 1.71875 -1.265625q0.4375 0 0.71875 0.109375l-0.03125 2.609375zm3.7009888 -2.53125l0.078125 0.921875q0.875 -1.109375 2.328125 -1.109375q1.5 0 2.125 1.34375q0.859375 -1.34375 2.453125 -1.34375q2.640625 0 2.703125 3.640625l0 6.578125l-2.625 0l0 -6.40625q0 -0.875 -0.25 -1.25q-0.234375 -0.375 -0.8125 -0.375q-0.734375 0 -1.09375 0.90625l0.015625 0.3125l0 6.8125l-2.625 0l0 -6.390625q0 -0.859375 -0.234375 -1.25q-0.21875 -0.390625 -0.8125 -0.390625q-0.6875 0 -1.078125 0.734375l0 7.296875l-2.625 0l0 -10.03125l2.453125 0zm16.134216 10.03125q-0.109375 -0.234375 -0.21875 -0.78125q-0.703125 0.96875 -1.90625 0.96875q-1.265625 0 -2.09375 -0.828125q-0.828125 -0.84375 -0.828125 -2.171875q0 -1.578125 1.0 -2.4375q1.015625 -0.859375 2.90625 -0.875l0.796875 0l0 -0.8125q0 -0.671875 -0.234375 -0.953125q-0.234375 -0.28125 -0.671875 -0.28125q-0.984375 0 -0.984375 1.15625l-2.625 0q0 -1.40625 1.03125 -2.296875q1.046875 -0.90625 2.640625 -0.90625q1.65625 0 2.5625 0.859375q0.90625 0.859375 0.90625 2.453125l0 4.71875q0.015625 1.296875 0.375 2.03125l0 0.15625l-2.65625 0zm-1.546875 -1.875q0.4375 0 0.734375 -0.171875q0.3125 -0.1875 0.46875 -0.421875l0 -2.09375l-0.640625 0q-0.65625 0 -1.046875 0.4375q-0.390625 0.421875 -0.390625 1.140625q0 1.109375 0.875 1.109375zm8.625305 -10.625l0 2.46875l1.34375 0l0 1.96875l-1.34375 0l0 4.984375q0 0.59375 0.15625 0.8125q0.15625 0.21875 0.625 0.21875q0.375 0 0.625 -0.0625l-0.015625 2.046875q-0.671875 0.25 -1.453125 0.25q-2.546875 0 -2.578125 -2.921875l0 -5.328125l-1.15625 0l0 -1.96875l1.15625 0l0 -2.46875l2.640625 0zm5.4329834 12.5l-2.640625 0l0 -10.03125l2.640625 0l0 10.03125zm-2.765625 -12.640625q0 -0.609375 0.390625 -1.0q0.390625 -0.390625 1.03125 -0.390625q0.65625 0 1.046875 0.390625q0.390625 0.390625 0.390625 1.0q0 0.609375 -0.390625 1.015625q-0.375 0.390625 -1.046875 0.390625q-0.65625 0 -1.046875 -0.390625q-0.375 -0.40625 -0.375 -1.015625zm7.9973755 8.921875l1.265625 -6.3125l2.734375 0l-2.75 10.03125l-2.5 0l-2.765625 -10.03125l2.75 0l1.265625 6.3125zm9.146362 3.90625q-2.03125 0 -3.171875 -1.203125q-1.125 -1.21875 -1.125 -3.453125l0 -0.796875q0 -2.375 1.03125 -3.65625q1.046875 -1.296875 2.984375 -1.296875q1.90625 0 2.859375 1.21875q0.953125 1.203125 0.96875 3.578125l0 1.28125l-5.21875 0q0.046875 1.109375 0.484375 1.625q0.4375 0.515625 1.34375 0.515625q1.328125 0 2.203125 -0.890625l1.03125 1.578125q-0.484375 0.671875 -1.40625 1.09375q-0.90625 0.40625 -1.984375 0.40625zm-1.65625 -6.15625l2.625 0l0 -0.25q-0.015625 -0.890625 -0.296875 -1.359375q-0.28125 -0.46875 -0.96875 -0.46875q-0.6875 0 -1.0 0.5q-0.296875 0.484375 -0.359375 1.578125z" fill-rule="nonzero"></path><path fill="#ffffff" d="m338.02924 214.7325q0 -0.34375 -0.328125 -0.625q-0.3125 -0.28125 -1.421875 -0.765625q-1.625 -0.65625 -2.234375 -1.359375q-0.609375 -0.703125 -0.609375 -1.75q0 -1.3125 0.953125 -2.171875q0.953125 -0.859375 2.515625 -0.859375q1.65625 0 2.640625 0.859375q1.0 0.84375 1.0 2.28125l-2.625 0q0 -1.21875 -1.015625 -1.21875q-0.421875 0 -0.6875 0.265625q-0.265625 0.25 -0.265625 0.71875q0 0.328125 0.296875 0.59375q0.296875 0.25 1.390625 0.71875q1.609375 0.59375 2.265625 1.328125q0.671875 0.71875 0.671875 1.875q0 1.34375 -1.015625 2.171875q-1.015625 0.8125 -2.65625 0.8125q-1.09375 0 -1.9375 -0.421875q-0.84375 -0.4375 -1.328125 -1.203125q-0.484375 -0.78125 -0.484375 -1.671875l2.5 0q0.015625 0.6875 0.3125 1.03125q0.3125 0.34375 1.0 0.34375q1.0625 0 1.0625 -0.953125zm7.0812073 -9.8125l0 2.46875l1.34375 0l0 1.96875l-1.34375 0l0 4.984375q0 0.59375 0.15625 0.8125q0.15625 0.21875 0.625 0.21875q0.375 0 0.625 -0.0625l-0.015625 2.046875q-0.671875 0.25 -1.453125 0.25q-2.546875 0 -2.578125 -2.921875l0 -5.328125l-1.15625 0l0 -1.96875l1.15625 0l0 -2.46875l2.640625 0zm7.433014 12.5q-0.109375 -0.234375 -0.21875 -0.78125q-0.703125 0.96875 -1.90625 0.96875q-1.265625 0 -2.09375 -0.828125q-0.828125 -0.84375 -0.828125 -2.171875q0 -1.578125 1.0 -2.4375q1.015625 -0.859375 2.90625 -0.875l0.796875 0l0 -0.8125q0 -0.671875 -0.234375 -0.953125q-0.234375 -0.28125 -0.671875 -0.28125q-0.984375 0 -0.984375 1.15625l-2.625 0q0 -1.40625 1.03125 -2.296875q1.046875 -0.90625 2.640625 -0.90625q1.65625 0 2.5625 0.859375q0.90625 0.859375 0.90625 2.453125l0 4.71875q0.015625 1.296875 0.375 2.03125l0 0.15625l-2.65625 0zm-1.546875 -1.875q0.4375 0 0.734375 -0.171875q0.3125 -0.1875 0.46875 -0.421875l0 -2.09375l-0.640625 0q-0.65625 0 -1.046875 0.4375q-0.390625 0.421875 -0.390625 1.140625q0 1.109375 0.875 1.109375zm7.969055 -8.15625l0.078125 0.984375q0.890625 -1.171875 2.328125 -1.171875q2.578125 0 2.65625 3.625l0 6.59375l-2.625 0l0 -6.40625q0 -0.84375 -0.265625 -1.234375q-0.25 -0.390625 -0.890625 -0.390625q-0.71875 0 -1.109375 0.734375l0 7.296875l-2.640625 0l0 -10.03125l2.46875 0zm10.401123 8.03125q1.140625 0 1.171875 -1.484375l2.453125 0q-0.015625 1.640625 -1.015625 2.65625q-0.984375 1.015625 -2.546875 1.015625q-1.9375 0 -2.96875 -1.203125q-1.015625 -1.21875 -1.03125 -3.5625l0 -0.796875q0 -2.359375 1.0 -3.59375q1.015625 -1.25 2.984375 -1.25q1.65625 0 2.609375 1.03125q0.953125 1.015625 0.96875 2.890625l-2.453125 0q-0.015625 -0.84375 -0.28125 -1.296875q-0.265625 -0.453125 -0.890625 -0.453125q-0.6875 0 -0.984375 0.5q-0.296875 0.484375 -0.3125 1.875l0 1.03125q0 1.21875 0.109375 1.703125q0.125 0.484375 0.40625 0.71875q0.28125 0.21875 0.78125 0.21875zm9.018646 2.1875q-2.03125 0 -3.171875 -1.203125q-1.125 -1.21875 -1.125 -3.453125l0 -0.796875q0 -2.375 1.03125 -3.65625q1.046875 -1.296875 2.984375 -1.296875q1.90625 0 2.859375 1.21875q0.953125 1.203125 0.96875 3.578125l0 1.28125l-5.21875 0q0.046875 1.109375 0.484375 1.625q0.4375 0.515625 1.34375 0.515625q1.328125 0 2.203125 -0.890625l1.03125 1.578125q-0.484375 0.671875 -1.40625 1.09375q-0.90625 0.40625 -1.984375 0.40625zm-1.65625 -6.15625l2.625 0l0 -0.25q-0.015625 -0.890625 -0.296875 -1.359375q-0.28125 -0.46875 -0.96875 -0.46875q-0.6875 0 -1.0 0.5q-0.296875 0.484375 -0.359375 1.578125zm13.586365 5.96875l-2.640625 0l0 -10.03125l2.640625 0l0 10.03125zm-2.765625 -12.640625q0 -0.609375 0.390625 -1.0q0.390625 -0.390625 1.03125 -0.390625q0.65625 0 1.046875 0.390625q0.390625 0.390625 0.390625 1.0q0 0.609375 -0.390625 1.015625q-0.375 0.390625 -1.046875 0.390625q-0.65625 0 -1.046875 -0.390625q-0.375 -0.40625 -0.375 -1.015625zm7.1067505 2.609375l0.078125 0.984375q0.890625 -1.171875 2.328125 -1.171875q2.578125 0 2.65625 3.625l0 6.59375l-2.625 0l0 -6.40625q0 -0.84375 -0.265625 -1.234375q-0.25 -0.390625 -0.890625 -0.390625q-0.71875 0 -1.109375 0.734375l0 7.296875l-2.640625 0l0 -10.03125l2.46875 0zm14.138306 -2.46875l0 2.46875l1.34375 0l0 1.96875l-1.34375 0l0 4.984375q0 0.59375 0.15625 0.8125q0.15625 0.21875 0.625 0.21875q0.375 0 0.625 -0.0625l-0.015625 2.046875q-0.671875 0.25 -1.453125 0.25q-2.546875 0 -2.578125 -2.921875l0 -5.328125l-1.15625 0l0 -1.96875l1.15625 0l0 -2.46875l2.640625 0zm6.7298584 12.6875q-2.03125 0 -3.171875 -1.203125q-1.125 -1.21875 -1.125 -3.453125l0 -0.796875q0 -2.375 1.03125 -3.65625q1.046875 -1.296875 2.984375 -1.296875q1.90625 0 2.859375 1.21875q0.953125 1.203125 0.96875 3.578125l0 1.28125l-5.21875 0q0.046875 1.109375 0.484375 1.625q0.4375 0.515625 1.34375 0.515625q1.328125 0 2.203125 -0.890625l1.03125 1.578125q-0.484375 0.671875 -1.40625 1.09375q-0.90625 0.40625 -1.984375 0.40625zm-1.65625 -6.15625l2.625 0l0 -0.25q-0.015625 -0.890625 -0.296875 -1.359375q-0.28125 -0.46875 -0.96875 -0.46875q-0.6875 0 -1.0 0.5q-0.296875 0.484375 -0.359375 1.578125zm11.286682 5.96875q-0.109375 -0.234375 -0.21875 -0.78125q-0.703125 0.96875 -1.90625 0.96875q-1.265625 0 -2.09375 -0.828125q-0.828125 -0.84375 -0.828125 -2.171875q0 -1.578125 1.0 -2.4375q1.015625 -0.859375 2.90625 -0.875l0.796875 0l0 -0.8125q0 -0.671875 -0.234375 -0.953125q-0.234375 -0.28125 -0.671875 -0.28125q-0.984375 0 -0.984375 1.15625l-2.625 0q0 -1.40625 1.03125 -2.296875q1.046875 -0.90625 2.640625 -0.90625q1.65625 0 2.5625 0.859375q0.90625 0.859375 0.90625 2.453125l0 4.71875q0.015625 1.296875 0.375 2.03125l0 0.15625l-2.65625 0zm-1.546875 -1.875q0.4375 0 0.734375 -0.171875q0.3125 -0.1875 0.46875 -0.421875l0 -2.09375l-0.640625 0q-0.65625 0 -1.046875 0.4375q-0.390625 0.421875 -0.390625 1.140625q0 1.109375 0.875 1.109375zm9.187805 -0.125q1.140625 0 1.171875 -1.484375l2.453125 0q-0.015625 1.640625 -1.015625 2.65625q-0.984375 1.015625 -2.546875 1.015625q-1.9375 0 -2.96875 -1.203125q-1.015625 -1.21875 -1.03125 -3.5625l0 -0.796875q0 -2.359375 1.0 -3.59375q1.015625 -1.25 2.984375 -1.25q1.65625 0 2.609375 1.03125q0.953125 1.015625 0.96875 2.890625l-2.453125 0q-0.015625 -0.84375 -0.28125 -1.296875q-0.265625 -0.453125 -0.890625 -0.453125q-0.6875 0 -0.984375 0.5q-0.296875 0.484375 -0.3125 1.875l0 1.03125q0 1.21875 0.109375 1.703125q0.125 0.484375 0.40625 0.71875q0.28125 0.21875 0.78125 0.21875zm7.5186462 -7.15625q0.859375 -1.0625 2.09375 -1.0625q1.375 0 2.09375 0.96875q0.71875 0.953125 0.71875 2.859375l0 6.390625l-2.625 0l0 -6.359375q0 -0.875 -0.28125 -1.265625q-0.28125 -0.40625 -0.890625 -0.40625q-0.703125 0 -1.109375 0.671875l0 7.359375l-2.625 0l0 -14.25l2.625 0l0 5.09375zm9.385498 9.15625l-2.640625 0l0 -10.03125l2.640625 0l0 10.03125zm-2.765625 -12.640625q0 -0.609375 0.390625 -1.0q0.390625 -0.390625 1.03125 -0.390625q0.65625 0 1.046875 0.390625q0.390625 0.390625 0.390625 1.0q0 0.609375 -0.390625 1.015625q-0.375 0.390625 -1.046875 0.390625q-0.65625 0 -1.046875 -0.390625q-0.375 -0.40625 -0.375 -1.015625zm7.1067505 2.609375l0.078125 0.984375q0.890625 -1.171875 2.328125 -1.171875q2.578125 0 2.65625 3.625l0 6.59375l-2.625 0l0 -6.40625q0 -0.84375 -0.265625 -1.234375q-0.25 -0.390625 -0.890625 -0.390625q-0.71875 0 -1.109375 0.734375l0 7.296875l-2.640625 0l0 -10.03125l2.46875 0zm6.463623 4.703125q0 -2.46875 0.890625 -3.671875q0.890625 -1.21875 2.5 -1.21875q1.359375 0 2.09375 1.078125l0.109375 -0.890625l2.359375 0l0 10.03125q0 1.921875 -1.078125 2.9375q-1.0625 1.015625 -3.078125 1.015625q-0.828125 0 -1.734375 -0.328125q-0.90625 -0.328125 -1.359375 -0.84375l0.890625 -1.8125q0.359375 0.390625 0.953125 0.625q0.59375 0.25 1.125 0.25q0.890625 0 1.265625 -0.421875q0.390625 -0.421875 0.390625 -1.359375l0 -0.859375q-0.75 0.984375 -1.953125 0.984375q-1.609375 0 -2.484375 -1.25q-0.875 -1.25 -0.890625 -3.515625l0 -0.75zm2.625 0.65625q0 1.390625 0.359375 2.03125q0.359375 0.640625 1.15625 0.640625q0.796875 0 1.1875 -0.59375l0 -4.796875q-0.40625 -0.640625 -1.171875 -0.640625q-0.78125 0 -1.15625 0.640625q-0.375 0.640625 -0.375 2.0625l0 0.65625zm16.13559 4.671875q-0.109375 -0.234375 -0.21875 -0.78125q-0.703125 0.96875 -1.90625 0.96875q-1.265625 0 -2.09375 -0.828125q-0.828125 -0.84375 -0.828125 -2.171875q0 -1.578125 1.0 -2.4375q1.015625 -0.859375 2.90625 -0.875l0.796875 0l0 -0.8125q0 -0.671875 -0.234375 -0.953125q-0.234375 -0.28125 -0.671875 -0.28125q-0.984375 0 -0.984375 1.15625l-2.625 0q0 -1.40625 1.03125 -2.296875q1.046875 -0.90625 2.640625 -0.90625q1.65625 0 2.5625 0.859375q0.90625 0.859375 0.90625 2.453125l0 4.71875q0.015625 1.296875 0.375 2.03125l0 0.15625l-2.65625 0zm-1.546875 -1.875q0.4375 0 0.734375 -0.171875q0.3125 -0.1875 0.46875 -0.421875l0 -2.09375l-0.640625 0q-0.65625 0 -1.046875 0.4375q-0.390625 0.421875 -0.390625 1.140625q0 1.109375 0.875 1.109375zm13.39093 -2.8125q0 2.4375 -0.78125 3.65625q-0.765625 1.21875 -2.4375 1.21875q-1.3125 0 -2.109375 -1.1875l-0.078125 1.0l-2.421875 0l0 -14.25l2.625 0l0 5.03125q0.75 -1.0 1.953125 -1.0q1.671875 0 2.453125 1.21875q0.78125 1.203125 0.796875 3.53125l0 0.78125zm-2.625 -0.671875q0 -1.578125 -0.3125 -2.125q-0.296875 -0.546875 -1.0625 -0.546875q-0.8125 0 -1.203125 0.75l0 4.578125q0.359375 0.703125 1.234375 0.703125q0.75 0 1.03125 -0.484375q0.296875 -0.5 0.3125 -1.90625l0 -0.96875zm3.73703 0.015625q0 -2.28125 1.0625 -3.578125q1.078125 -1.296875 2.984375 -1.296875q1.921875 0 3.0 1.296875q1.078125 1.296875 1.078125 3.59375l0 0.640625q0 2.296875 -1.078125 3.59375q-1.0625 1.28125 -2.984375 1.28125q-1.921875 0 -3.0 -1.296875q-1.0625 -1.296875 -1.0625 -3.59375l0 -0.640625zm2.625 0.65625q0 2.6875 1.4375 2.6875q1.328125 0 1.4375 -2.234375l0 -1.109375q0 -1.375 -0.375 -2.03125q-0.375 -0.671875 -1.078125 -0.671875q-0.671875 0 -1.046875 0.671875q-0.375 0.65625 -0.375 2.03125l0 0.65625zm11.891968 3.765625q-0.8125 1.109375 -2.1875 1.109375q-1.390625 0 -2.109375 -0.953125q-0.703125 -0.953125 -0.703125 -2.765625l0 -6.5l2.625 0l0 6.5625q0.015625 1.46875 0.96875 1.46875q0.90625 0 1.3125 -0.78125l0 -7.25l2.640625 0l0 10.03125l-2.46875 0l-0.078125 -0.921875zm7.307373 -11.578125l0 2.46875l1.34375 0l0 1.96875l-1.34375 0l0 4.984375q0 0.59375 0.15625 0.8125q0.15625 0.21875 0.625 0.21875q0.375 0 0.625 -0.0625l-0.015625 2.046875q-0.671875 0.25 -1.453125 0.25q-2.546875 0 -2.578125 -2.921875l0 -5.328125l-1.15625 0l0 -1.96875l1.15625 0l0 -2.46875l2.640625 0zm10.029541 0l0 2.46875l1.34375 0l0 1.96875l-1.34375 0l0 4.984375q0 0.59375 0.15625 0.8125q0.15625 0.21875 0.625 0.21875q0.375 0 0.625 -0.0625l-0.015625 2.046875q-0.671875 0.25 -1.453125 0.25q-2.546875 0 -2.578125 -2.921875l0 -5.328125l-1.15625 0l0 -1.96875l1.15625 0l0 -2.46875l2.640625 0zm5.2298584 3.34375q0.859375 -1.0625 2.09375 -1.0625q1.375 0 2.09375 0.96875q0.71875 0.953125 0.71875 2.859375l0 6.390625l-2.625 0l0 -6.359375q0 -0.875 -0.28125 -1.265625q-0.28125 -0.40625 -0.890625 -0.40625q-0.703125 0 -1.109375 0.671875l0 7.359375l-2.625 0l0 -14.25l2.625 0l0 5.09375zm10.682373 9.34375q-2.03125 0 -3.171875 -1.203125q-1.125 -1.21875 -1.125 -3.453125l0 -0.796875q0 -2.375 1.03125 -3.65625q1.046875 -1.296875 2.984375 -1.296875q1.90625 0 2.859375 1.21875q0.953125 1.203125 0.96875 3.578125l0 1.28125l-5.21875 0q0.046875 1.109375 0.484375 1.625q0.4375 0.515625 1.34375 0.515625q1.328125 0 2.203125 -0.890625l1.03125 1.578125q-0.484375 0.671875 -1.40625 1.09375q-0.90625 0.40625 -1.984375 0.40625zm-1.65625 -6.15625l2.625 0l0 -0.25q-0.015625 -0.890625 -0.296875 -1.359375q-0.28125 -0.46875 -0.96875 -0.46875q-0.6875 0 -1.0 0.5q-0.296875 0.484375 -0.359375 1.578125zm14.44574 3.96875q1.140625 0 1.171875 -1.484375l2.453125 0q-0.015625 1.640625 -1.015625 2.65625q-0.984375 1.015625 -2.546875 1.015625q-1.9375 0 -2.96875 -1.203125q-1.015625 -1.21875 -1.03125 -3.5625l0 -0.796875q0 -2.359375 1.0 -3.59375q1.015625 -1.25 2.984375 -1.25q1.65625 0 2.609375 1.03125q0.953125 1.015625 0.96875 2.890625l-2.453125 0q-0.015625 -0.84375 -0.28125 -1.296875q-0.265625 -0.453125 -0.890625 -0.453125q-0.6875 0 -0.984375 0.5q-0.296875 0.484375 -0.3125 1.875l0 1.03125q0 1.21875 0.109375 1.703125q0.125 0.484375 0.40625 0.71875q0.28125 0.21875 0.78125 0.21875zm7.7218018 2.0l-2.640625 0l0 -14.25l2.640625 0l0 14.25zm4.7005005 0l-2.640625 0l0 -10.03125l2.640625 0l0 10.03125zm-2.765625 -12.640625q0 -0.609375 0.390625 -1.0q0.390625 -0.390625 1.03125 -0.390625q0.65625 0 1.046875 0.390625q0.390625 0.390625 0.390625 1.0q0 0.609375 -0.390625 1.015625q-0.375 0.390625 -1.046875 0.390625q-0.65625 0 -1.046875 -0.390625q-0.375 -0.40625 -0.375 -1.015625zm7.1692505 2.609375l0.078125 0.921875q0.875 -1.109375 2.328125 -1.109375q1.5 0 2.125 1.34375q0.859375 -1.34375 2.453125 -1.34375q2.640625 0 2.703125 3.640625l0 6.578125l-2.625 0l0 -6.40625q0 -0.875 -0.25 -1.25q-0.234375 -0.375 -0.8125 -0.375q-0.734375 0 -1.09375 0.90625l0.015625 0.3125l0 6.8125l-2.625 0l0 -6.390625q0 -0.859375 -0.234375 -1.25q-0.21875 -0.390625 -0.8125 -0.390625q-0.6875 0 -1.078125 0.734375l0 7.296875l-2.625 0l0 -10.03125l2.453125 0zm16.134216 10.03125q-0.109375 -0.234375 -0.21875 -0.78125q-0.703125 0.96875 -1.90625 0.96875q-1.265625 0 -2.09375 -0.828125q-0.828125 -0.84375 -0.828125 -2.171875q0 -1.578125 1.0 -2.4375q1.015625 -0.859375 2.90625 -0.875l0.796875 0l0 -0.8125q0 -0.671875 -0.234375 -0.953125q-0.234375 -0.28125 -0.671875 -0.28125q-0.984375 0 -0.984375 1.15625l-2.625 0q0 -1.40625 1.03125 -2.296875q1.046875 -0.90625 2.640625 -0.90625q1.65625 0 2.5625 0.859375q0.90625 0.859375 0.90625 2.453125l0 4.71875q0.015625 1.296875 0.375 2.03125l0 0.15625l-2.65625 0zm-1.546875 -1.875q0.4375 0 0.734375 -0.171875q0.3125 -0.1875 0.46875 -0.421875l0 -2.09375l-0.640625 0q-0.65625 0 -1.046875 0.4375q-0.390625 0.421875 -0.390625 1.140625q0 1.109375 0.875 1.109375zm8.625305 -10.625l0 2.46875l1.34375 0l0 1.96875l-1.34375 0l0 4.984375q0 0.59375 0.15625 0.8125q0.15625 0.21875 0.625 0.21875q0.375 0 0.625 -0.0625l-0.015625 2.046875q-0.671875 0.25 -1.453125 0.25q-2.546875 0 -2.578125 -2.921875l0 -5.328125l-1.15625 0l0 -1.96875l1.15625 0l0 -2.46875l2.640625 0zm6.7298584 12.6875q-2.03125 0 -3.171875 -1.203125q-1.125 -1.21875 -1.125 -3.453125l0 -0.796875q0 -2.375 1.03125 -3.65625q1.046875 -1.296875 2.984375 -1.296875q1.90625 0 2.859375 1.21875q0.953125 1.203125 0.96875 3.578125l0 1.28125l-5.21875 0q0.046875 1.109375 0.484375 1.625q0.4375 0.515625 1.34375 0.515625q1.328125 0 2.203125 -0.890625l1.03125 1.578125q-0.484375 0.671875 -1.40625 1.09375q-0.90625 0.40625 -1.984375 0.40625zm-1.65625 -6.15625l2.625 0l0 -0.25q-0.015625 -0.890625 -0.296875 -1.359375q-0.28125 -0.46875 -0.96875 -0.46875q-0.6875 0 -1.0 0.5q-0.296875 0.484375 -0.359375 1.578125zm14.44574 3.96875q1.140625 0 1.171875 -1.484375l2.453125 0q-0.015625 1.640625 -1.015625 2.65625q-0.984375 1.015625 -2.546875 1.015625q-1.9375 0 -2.96875 -1.203125q-1.015625 -1.21875 -1.03125 -3.5625l0 -0.796875q0 -2.359375 1.0 -3.59375q1.015625 -1.25 2.984375 -1.25q1.65625 0 2.609375 1.03125q0.953125 1.015625 0.96875 2.890625l-2.453125 0q-0.015625 -0.84375 -0.28125 -1.296875q-0.265625 -0.453125 -0.890625 -0.453125q-0.6875 0 -0.984375 0.5q-0.296875 0.484375 -0.3125 1.875l0 1.03125q0 1.21875 0.109375 1.703125q0.125 0.484375 0.40625 0.71875q0.28125 0.21875 0.78125 0.21875zm9.909302 -5.5l-0.875 -0.078125q-1.0625 0 -1.453125 0.9375l0 6.640625l-2.625 0l0 -10.03125l2.46875 0l0.078125 1.078125q0.625 -1.265625 1.71875 -1.265625q0.4375 0 0.71875 0.109375l-0.03125 2.609375zm3.9978027 7.5l-2.640625 0l0 -10.03125l2.640625 0l0 10.03125zm-2.765625 -12.640625q0 -0.609375 0.390625 -1.0q0.390625 -0.390625 1.03125 -0.390625q0.65625 0 1.046875 0.390625q0.390625 0.390625 0.390625 1.0q0 0.609375 -0.390625 1.015625q-0.375 0.390625 -1.046875 0.390625q-0.65625 0 -1.046875 -0.390625q-0.375 -0.40625 -0.375 -1.015625zm9.1536255 9.953125q0 -0.34375 -0.328125 -0.625q-0.3125 -0.28125 -1.421875 -0.765625q-1.625 -0.65625 -2.234375 -1.359375q-0.609375 -0.703125 -0.609375 -1.75q0 -1.3125 0.953125 -2.171875q0.953125 -0.859375 2.515625 -0.859375q1.65625 0 2.640625 0.859375q1.0 0.84375 1.0 2.28125l-2.625 0q0 -1.21875 -1.015625 -1.21875q-0.421875 0 -0.6875 0.265625q-0.265625 0.25 -0.265625 0.71875q0 0.328125 0.296875 0.59375q0.296875 0.25 1.390625 0.71875q1.609375 0.59375 2.265625 1.328125q0.671875 0.71875 0.671875 1.875q0 1.34375 -1.015625 2.171875q-1.015625 0.8125 -2.65625 0.8125q-1.09375 0 -1.9375 -0.421875q-0.84375 -0.4375 -1.328125 -1.203125q-0.484375 -0.78125 -0.484375 -1.671875l2.5 0q0.015625 0.6875 0.3125 1.03125q0.3125 0.34375 1.0 0.34375q1.0625 0 1.0625 -0.953125zm6.784363 2.6875l-2.640625 0l0 -10.03125l2.640625 0l0 10.03125zm-2.765625 -12.640625q0 -0.609375 0.390625 -1.0q0.390625 -0.390625 1.03125 -0.390625q0.65625 0 1.046875 0.390625q0.390625 0.390625 0.390625 1.0q0 0.609375 -0.390625 1.015625q-0.375 0.390625 -1.046875 0.390625q-0.65625 0 -1.046875 -0.390625q-0.375 -0.40625 -0.375 -1.015625zm9.1536255 9.953125q0 -0.34375 -0.328125 -0.625q-0.3125 -0.28125 -1.421875 -0.765625q-1.625 -0.65625 -2.234375 -1.359375q-0.609375 -0.703125 -0.609375 -1.75q0 -1.3125 0.953125 -2.171875q0.953125 -0.859375 2.515625 -0.859375q1.65625 0 2.640625 0.859375q1.0 0.84375 1.0 2.28125l-2.625 0q0 -1.21875 -1.015625 -1.21875q-0.421875 0 -0.6875 0.265625q-0.265625 0.25 -0.265625 0.71875q0 0.328125 0.296875 0.59375q0.296875 0.25 1.390625 0.71875q1.609375 0.59375 2.265625 1.328125q0.671875 0.71875 0.671875 1.875q0 1.34375 -1.015625 2.171875q-1.015625 0.8125 -2.65625 0.8125q-1.09375 0 -1.9375 -0.421875q-0.84375 -0.4375 -1.328125 -1.203125q-0.484375 -0.78125 -0.484375 -1.671875l2.5 0q0.015625 0.6875 0.3125 1.03125q0.3125 0.34375 1.0 0.34375q1.0625 0 1.0625 -0.953125zm4.2374268 1.34375q0 -0.625 0.421875 -1.03125q0.421875 -0.40625 1.09375 -0.40625q0.65625 0 1.09375 0.40625q0.4375 0.40625 0.4375 1.03125q0 0.65625 -0.4375 1.0625q-0.4375 0.390625 -1.09375 0.390625q-0.65625 0 -1.09375 -0.40625q-0.421875 -0.40625 -0.421875 -1.046875zm6.0855103 -8.015625l-1.203125 -0.734375q0.65625 -1.3125 0.6875 -2.546875l0 -1.609375l2.0625 0l0 1.46875q-0.015625 0.84375 -0.453125 1.828125q-0.421875 0.96875 -1.09375 1.59375zm3.0 0l-1.203125 -0.734375q0.65625 -1.3125 0.6875 -2.546875l0 -1.609375l2.0625 0l0 1.46875q-0.015625 0.84375 -0.453125 1.828125q-0.421875 0.96875 -1.09375 1.59375z" fill-rule="nonzero"></path><path fill="#ffffff" d="m471.6469 258.58002l0 -10.67189l3.296875 0q1.671875 0 2.53125 0.75q0.875 0.75 0.875 2.1875q0 0.8125 -0.359375 1.40625q-0.359375 0.578125 -0.984375 0.84375q0.71875 0.203125 1.109375 0.828125q0.390625 0.609375 0.390625 1.515625q0 1.5625153 -0.859375 2.3593903q-0.859375 0.78125 -2.46875 0.78125l-3.53125 0zm2.15625 -4.6406403l0 2.8593903l1.375 0q0.578125 0 0.875 -0.359375q0.296875 -0.359375 0.296875 -1.0312653q0 -1.421875 -1.03125 -1.46875l-1.515625 0zm0 -1.5625l1.109375 0q1.265625 0 1.265625 -1.3125q0 -0.71875 -0.296875 -1.03125q-0.28125 -0.328125 -0.9375 -0.328125l-1.140625 0l0 2.671875zm8.144562 6.2031403l-2.09375 0l0 -7.9218903l2.09375 0l0 7.9218903zm-2.1875 -9.968765q0 -0.484375 0.3125 -0.796875q0.3125 -0.3125 0.8125 -0.3125q0.515625 0 0.828125 0.3125q0.3125 0.3125 0.3125 0.796875q0 0.46875 -0.3125 0.78125q-0.296875 0.3125 -0.828125 0.3125q-0.515625 0 -0.828125 -0.3125q-0.296875 -0.3125 -0.296875 -0.78125zm5.880188 9.968765l-2.09375 0l0 -11.250015l2.09375 0l0 11.250015zm3.692688 0l-2.09375 0l0 -11.250015l2.09375 0l0 11.250015zm4.9923706 0l0 -10.67189l3.296875 0q1.671875 0 2.53125 0.75q0.875 0.75 0.875 2.1875q0 0.8125 -0.359375 1.40625q-0.359375 0.578125 -0.984375 0.84375q0.71875 0.203125 1.109375 0.828125q0.390625 0.609375 0.390625 1.515625q0 1.5625153 -0.859375 2.3593903q-0.859375 0.78125 -2.46875 0.78125l-3.53125 0zm2.15625 -4.6406403l0 2.8593903l1.375 0q0.578125 0 0.875 -0.359375q0.296875 -0.359375 0.296875 -1.0312653q0 -1.421875 -1.03125 -1.46875l-1.515625 0zm0 -1.5625l1.109375 0q1.265625 0 1.265625 -1.3125q0 -0.71875 -0.296875 -1.03125q-0.28125 -0.328125 -0.9375 -0.328125l-1.140625 0l0 2.671875zm8.144531 6.2031403l-2.09375 0l0 -7.9218903l2.09375 0l0 7.9218903zm-2.1875 -9.968765q0 -0.484375 0.3125 -0.796875q0.3125 -0.3125 0.8125 -0.3125q0.515625 0 0.828125 0.3125q0.3125 0.3125 0.3125 0.796875q0 0.46875 -0.3125 0.78125q-0.296875 0.3125 -0.828125 0.3125q-0.515625 0 -0.828125 -0.3125q-0.296875 -0.3125 -0.296875 -0.78125zm3.442688 5.765625q0 -1.953125 0.703125 -2.90625q0.703125 -0.96875 1.96875 -0.96875q1.078125 0 1.671875 0.859375l0.078125 -0.703125l1.8750305 0l0 7.9218903q0 1.515625 -0.8594055 2.3125q-0.84375 0.8125 -2.4375 0.8125q-0.65625 0 -1.375 -0.265625q-0.71875 -0.265625 -1.0625 -0.65625l0.703125 -1.4375q0.28125 0.296875 0.75 0.484375q0.46875 0.203125 0.890625 0.203125q0.703125 0 1.0 -0.328125q0.296875 -0.328125 0.3125 -1.078125l0 -0.671875q-0.59375 0.765625 -1.546875 0.765625q-1.265625 0 -1.96875 -0.984375q-0.6875 -0.984375 -0.703125 -2.7812653l0 -0.578125zm2.078125 0.515625q0 1.1093903 0.28125 1.6093903q0.296875 0.5 0.90625 0.5q0.640625 0 0.953125 -0.46875l0 -3.7812653q-0.328125 -0.5 -0.9375 -0.5q-0.609375 0 -0.90625 0.5q-0.296875 0.5 -0.296875 1.625l0 0.515625zm8.746063 3.8281403q-1.59375 0 -2.484375 -0.953125q-0.890625 -0.953125 -0.890625 -2.7187653l0 -0.625q0 -1.875 0.8125 -2.890625q0.828125 -1.03125 2.359375 -1.03125q1.484375 0 2.234375 0.96875q0.765625 0.953125 0.78125 2.828125l0 1.015625l-4.125 0q0.046875 0.87501526 0.390625 1.2812653q0.34375 0.40625 1.0625 0.40625q1.03125 0 1.734375 -0.703125l0.8125 1.25q-0.390625 0.53125 -1.109375 0.859375q-0.71875 0.3125 -1.578125 0.3125zm-1.296875 -4.8593903l2.0625 0l0 -0.1875q-0.015625 -0.71875 -0.234375 -1.078125q-0.21875 -0.359375 -0.765625 -0.359375q-0.53125 0 -0.78125 0.390625q-0.234375 0.375 -0.28125 1.234375zm7.2944946 4.7187653l-2.09375 0l0 -11.250015l2.09375 0l0 11.250015zm1.270813 -4.2187653q0 -1.796875 0.84375 -2.828125q0.859375 -1.03125 2.359375 -1.03125q1.515625 0 2.359375 1.03125q0.84375 1.03125 0.84375 2.84375l0 0.5q0 1.8125153 -0.84375 2.8281403q-0.828125 1.015625 -2.34375 1.015625q-1.53125 0 -2.375 -1.015625q-0.84375 -1.015625 -0.84375 -2.8437653l0 -0.5zm2.078125 0.515625q0 2.1250153 1.140625 2.1250153q1.046875 0 1.125 -1.7656403l0 -0.875q0 -1.078125 -0.296875 -1.59375q-0.296875 -0.53125 -0.84375 -0.53125q-0.53125 0 -0.828125 0.53125q-0.296875 0.515625 -0.296875 1.59375l0 0.515625zm11.229858 0.21875l0.703125 -4.4375l1.984375 0l-1.640625 7.9218903l-1.71875 0l-1.125 -4.5781403l-1.109375 4.5781403l-1.734375 0l-1.640625 -7.9218903l1.984375 0l0.703125 4.453125l1.0625 -4.453125l1.46875 0l1.0625 4.4375zm4.118408 6.1718903l-1.109375 -0.578125l0.28125 -0.515625q0.46875 -0.875 0.484375 -1.75l0 -1.640625l1.796875 0l-0.015625 1.46875q0 0.78125 -0.390625 1.609375q-0.390625 0.828125 -1.046875 1.40625zm13.696228 -6.2343903q-0.09375 1.8125153 -1.046875 2.7500153q-0.9375 0.9375 -2.65625 0.9375q-1.8125 0 -2.78125 -1.1875q-0.953125 -1.1875 -0.953125 -3.3906403l0 -1.796875q0 -2.203125 1.0 -3.390625q1.0 -1.1875 2.765625 -1.1875q1.75 0 2.640625 0.984375q0.90625 0.96875 1.03125 2.796875l-2.15625 0q-0.03125 -1.140625 -0.34375 -1.5625q-0.3125 -0.4375 -1.171875 -0.4375q-0.859375 0 -1.21875 0.609375q-0.359375 0.609375 -0.390625 1.984375l0 2.015625q0 1.59375 0.359375 2.1875153q0.359375 0.59375 1.21875 0.59375q0.859375 0 1.171875 -0.40625q0.328125 -0.421875 0.375 -1.5000153l2.15625 0zm4.9211426 2.8281403q-0.65625 0.859375 -1.734375 0.859375q-1.09375 0 -1.65625 -0.75q-0.5625 -0.75 -0.5625 -2.1875153l0 -5.125l2.078125 0l0 5.1875q0.015625 1.1562653 0.765625 1.1562653q0.703125 0 1.03125 -0.625l0 -5.7187653l2.078125 0l0 7.9218903l-1.953125 0l-0.046875 -0.71875zm7.229248 -5.2031403l-0.6875 -0.0625q-0.859375 0 -1.15625 0.75l0 5.2343903l-2.078125 0l0 -7.9218903l1.953125 0l0.0625 0.859375q0.484375 -1.015625 1.34375 -1.015625q0.359375 0 0.578125 0.109375l-0.015625 2.046875zm4.859131 0l-0.6875 -0.0625q-0.859375 0 -1.15625 0.75l0 5.2343903l-2.078125 0l0 -7.9218903l1.953125 0l0.0625 0.859375q0.484375 -1.015625 1.34375 -1.015625q0.359375 0 0.578125 0.109375l-0.015625 2.046875zm3.124817 5.9218903l-2.09375 0l0 -7.9218903l2.09375 0l0 7.9218903zm-2.1875 -9.968765q0 -0.484375 0.3125 -0.796875q0.3125 -0.3125 0.8125 -0.3125q0.515625 0 0.828125 0.3125q0.3125 0.3125 0.3125 0.796875q0 0.46875 -0.3125 0.78125q-0.296875 0.3125 -0.828125 0.3125q-0.515625 0 -0.828125 -0.3125q-0.296875 -0.3125 -0.296875 -0.78125zm6.567688 8.39064q0.890625 0 0.90625 -1.1718903l1.953125 0q-0.015625 1.2968903 -0.796875 2.0937653q-0.78125 0.796875 -2.03125 0.796875q-1.53125 0 -2.34375 -0.953125q-0.796875 -0.953125 -0.8125 -2.7968903l0 -0.625q0 -1.875 0.796875 -2.859375q0.796875 -0.984375 2.34375 -0.984375q1.3125 0 2.0625 0.8125q0.765625 0.8125 0.78125 2.296875l-1.953125 0q0 -0.65625 -0.21875 -1.015625q-0.203125 -0.359375 -0.703125 -0.359375q-0.546875 0 -0.78125 0.390625q-0.234375 0.375 -0.25 1.484375l0 0.796875q0 0.96875 0.09375 1.3593903q0.109375 0.375 0.328125 0.5625q0.21875 0.171875 0.625 0.171875zm7.772583 0.859375q-0.65625 0.859375 -1.734375 0.859375q-1.09375 0 -1.65625 -0.75q-0.5625 -0.75 -0.5625 -2.1875153l0 -5.125l2.078125 0l0 5.1875q0.015625 1.1562653 0.765625 1.1562653q0.703125 0 1.03125 -0.625l0 -5.7187653l2.078125 0l0 7.9218903l-1.953125 0l-0.046875 -0.71875zm5.494873 0.71875l-2.09375 0l0 -11.250015l2.09375 0l0 11.250015zm5.411438 -0.71875q-0.65625 0.859375 -1.734375 0.859375q-1.09375 0 -1.65625 -0.75q-0.5625 -0.75 -0.5625 -2.1875153l0 -5.125l2.078125 0l0 5.1875q0.015625 1.1562653 0.765625 1.1562653q0.703125 0 1.03125 -0.625l0 -5.7187653l2.078125 0l0 7.9218903l-1.953125 0l-0.046875 -0.71875zm5.260498 -7.2031403l0.0625 0.734375q0.6875 -0.890625 1.828125 -0.890625q1.1875 0 1.6875 1.078125q0.671875 -1.078125 1.9375 -1.078125q2.078125 0 2.125 2.890625l0 5.1875153l-2.0625 0l0 -5.0625153q0 -0.6875 -0.203125 -0.96875q-0.1875 -0.296875 -0.640625 -0.296875q-0.578125 0 -0.859375 0.703125l0.015625 0.25l0 5.3750153l-2.078125 0l0 -5.0468903q0 -0.6875 -0.1875 -0.984375q-0.171875 -0.296875 -0.640625 -0.296875q-0.53125 0 -0.859375 0.578125l0 5.7500153l-2.0625 0l0 -7.9218903l1.9375 0zm17.904541 3.3125l-3.34375 0l0 2.8281403l3.96875 0l0 1.78125l-6.125 0l0 -10.67189l6.109375 0l0 1.796875l-3.953125 0l0 2.53125l3.34375 0l0 1.734375zm1.3015747 0.40625q0 -1.953125 0.65625 -2.90625q0.671875 -0.96875 1.921875 -0.96875q0.921875 0 1.53125 0.796875l0 -3.96875l2.09375 0l0 11.250015l-1.890625 0l-0.09375 -0.8125q-0.640625 0.953125 -1.640625 0.953125q-1.25 0 -1.90625 -0.953125q-0.65625 -0.953125 -0.671875 -2.7968903l0 -0.59375zm2.09375 0.515625q0 1.1718903 0.234375 1.6406403q0.25 0.46875 0.84375 0.46875q0.625 0 0.9375 -0.546875l0 -3.6250153q-0.3125 -0.578125 -0.921875 -0.578125q-0.578125 0 -0.84375 0.46875q-0.25 0.453125 -0.25 1.625l0 0.546875zm7.638672 3.6875153l-2.09375 0l0 -7.9218903l2.09375 0l0 7.9218903zm-2.1875 -9.968765q0 -0.484375 0.3125 -0.796875q0.3125 -0.3125 0.8125 -0.3125q0.515625 0 0.828125 0.3125q0.3125 0.3125 0.3125 0.796875q0 0.46875 -0.3125 0.78125q-0.296875 0.3125 -0.828125 0.3125q-0.515625 0 -0.828125 -0.3125q-0.296875 -0.3125 -0.296875 -0.78125zm6.114563 0.09375l0 1.953125l1.046875 0l0 1.5625l-1.046875 0l0 3.9218903q0 0.46875 0.125 0.65625q0.125 0.171875 0.484375 0.171875q0.3125 0 0.5 -0.046875l-0.015625 1.609375q-0.53125 0.1875 -1.140625 0.1875q-2.015625 0 -2.03125 -2.296875l0 -4.2031403l-0.921875 0l0 -1.5625l0.921875 0l0 -1.953125l2.078125 0zm1.8451538 5.65625q0 -1.796875 0.84375 -2.828125q0.859375 -1.03125 2.359375 -1.03125q1.515625 0 2.359375 1.03125q0.84375 1.03125 0.84375 2.84375l0 0.5q0 1.8125153 -0.84375 2.8281403q-0.828125 1.015625 -2.34375 1.015625q-1.53125 0 -2.375 -1.015625q-0.84375 -1.015625 -0.84375 -2.8437653l0 -0.5zm2.078125 0.515625q0 2.1250153 1.140625 2.1250153q1.046875 0 1.125 -1.7656403l0 -0.875q0 -1.078125 -0.296875 -1.59375q-0.296875 -0.53125 -0.84375 -0.53125q-0.53125 0 -0.828125 0.53125q-0.296875 0.515625 -0.296875 1.59375l0 0.515625zm9.370422 -2.21875l-0.6875 -0.0625q-0.859375 0 -1.15625 0.75l0 5.2343903l-2.078125 0l0 -7.9218903l1.953125 0l0.0625 0.859375q0.484375 -1.015625 1.34375 -1.015625q0.359375 0 0.578125 0.109375l-0.015625 2.046875zm1.5623169 8.60939l-1.109375 -0.578125l0.28125 -0.515625q0.46875 -0.875 0.484375 -1.75l0 -1.640625l1.796875 0l-0.015625 1.46875q0 0.78125 -0.390625 1.609375q-0.390625 0.828125 -1.046875 1.40625z" fill-rule="nonzero"></path><path fill="#ffffff" d="m660.7966 254.68938l-1.078125 0l-0.671875 3.8906403l-2.09375 0l1.84375 -10.67189l3.21875 0.015625q1.421875 0.046875 2.1875 0.890625q0.765625 0.828125 0.640625 2.265625q-0.171875 2.1875 -1.984375 3.046875l1.0625 4.3281403l0 0.125l-2.25 0l-0.875 -3.8906403zm-0.765625 -1.796875l1.109375 0.015625q0.765625 -0.015625 1.203125 -0.609375q0.4375 -0.59375 0.421875 -1.5625q-0.03125 -0.953125 -0.84375 -1.015625l-1.328125 -0.015625l-0.5625 3.1875zm8.0217285 5.8281403q-0.96875 0 -1.640625 -0.453125q-0.65625 -0.46875 -0.953125 -1.296875q-0.296875 -0.84375 -0.1875 -1.9062653l0.0625 -0.53125q0.25 -1.96875 1.203125 -3.015625q0.953125 -1.046875 2.4375 -1.015625q1.078125 0.03125 1.6875 0.6875q0.625 0.640625 0.734375 1.8125q0.0625 0.6875 -0.03125 1.359375l-0.140625 0.953125l-3.953125 0q-0.03125 0.3125 -0.015625 0.609375q0.046875 1.0468903 1.03125 1.0781403q0.90625 0.03125 1.765625 -0.703125l0.6875 1.265625q-0.40625 0.546875 -1.125 0.859375q-0.71875 0.3125 -1.5625 0.296875zm0.71875 -6.5000153q-0.875 -0.046875 -1.21875 1.109375l-0.140625 0.53125l2.015625 0.015625q0.078125 -0.4375 0.078125 -0.6875q0.03125 -0.9375 -0.734375 -0.96875zm6.9553833 -3.515625l-0.34375 1.953125l1.03125 0l-0.265625 1.5625l-1.03125 0l-0.671875 3.9843903l-0.03125 0.234375q-0.015625 0.5 0.421875 0.5q0.125 0.015625 0.5 -0.03125l-0.1875 1.625q-0.453125 0.1875 -1.0625 0.1875q-0.875 -0.015625 -1.328125 -0.640625q-0.453125 -0.625 -0.34375 -1.703125l0.6875 -4.1562653l-0.90625 0l0.28125 -1.5625l0.875 0l0.34375 -1.953125l2.03125 0zm3.5150757 2.65625q0.765625 -0.875 1.671875 -0.859375q0.859375 0.015625 1.3125 0.65625q0.46875 0.625 0.46875 1.734375l-0.03125 0.703125l-0.828125 4.9843903l-2.03125 0l0.828125 -5.0156403l0.03125 -0.421875q0.03125 -0.890625 -0.640625 -0.890625q-0.484375 -0.015625 -0.9375 0.5l-1.015625 5.8281403l-2.03125 0l1.96875 -11.250015l2.015625 0l-0.78125 4.03125zm6.0548706 7.2187653l-2.03125 0l1.375 -7.9218903l2.03125 0l-1.375 7.9218903zm-0.390625 -9.937515q0 -0.5 0.3125 -0.8125q0.328125 -0.328125 0.78125 -0.328125q0.453125 -0.015625 0.765625 0.296875q0.328125 0.3125 0.328125 0.765625q0 0.515625 -0.328125 0.84375q-0.3125 0.3125 -0.765625 0.3125q-0.46875 0.015625 -0.78125 -0.296875q-0.3125 -0.3125 -0.3125 -0.78125zm5.1256714 2.0l-0.140625 0.796875q0.84375 -0.96875 1.859375 -0.9375q0.828125 0.015625 1.265625 0.625q0.4375 0.609375 0.421875 1.734375l-0.03125 0.671875l-0.84375 5.0468903l-2.03125 0l0.828125 -5.0468903l0.046875 -0.4375q0.03125 -0.859375 -0.65625 -0.859375q-0.3125 0 -0.53125 0.171875q-0.21875 0.171875 -0.40625 0.40625l-1.0 5.7656403l-2.046875 0l1.390625 -7.9218903l1.875 -0.015625zm7.0079956 4.90625l-0.71875 0.68751526l-0.40625 2.34375l-2.015625 0l1.953125 -11.250015l2.015625 0l-1.125 6.09375l0.328125 -0.390625l1.796875 -2.375l2.53125 0l-2.890625 3.359375l1.609375 4.5625153l-2.21875 0l-0.859375 -3.0312653zm5.8616333 3.0312653l-2.03125 0l1.375 -7.9218903l2.03125 0l-1.375 7.9218903zm-0.390625 -9.937515q0 -0.5 0.3125 -0.8125q0.328125 -0.328125 0.78125 -0.328125q0.453125 -0.015625 0.765625 0.296875q0.328125 0.3125 0.328125 0.765625q0 0.515625 -0.328125 0.84375q-0.3125 0.3125 -0.765625 0.3125q-0.46875 0.015625 -0.78125 -0.296875q-0.3125 -0.3125 -0.3125 -0.78125zm5.1256714 2.0l-0.140625 0.796875q0.84375 -0.96875 1.859375 -0.9375q0.828125 0.015625 1.265625 0.625q0.4375 0.609375 0.421875 1.734375l-0.03125 0.671875l-0.84375 5.0468903l-2.03125 0l0.828125 -5.0468903l0.046875 -0.4375q0.03125 -0.859375 -0.65625 -0.859375q-0.3125 0 -0.53125 0.171875q-0.21875 0.171875 -0.40625 0.40625l-1.0 5.7656403l-2.046875 0l1.390625 -7.9218903l1.875 -0.015625zm7.4767456 -0.140625q1.046875 0.03125 1.53125 0.875l0.25 -0.734375l1.84375 0.015625l-1.34375 7.9218903q-0.21875 1.546875 -1.1875 2.359375q-0.96875 0.8125 -2.4375 0.765625q-0.640625 -0.015625 -1.28125 -0.265625q-0.625 -0.25 -1.046875 -0.6875l0.828125 -1.421875q0.609375 0.6875 1.515625 0.71875q1.3125 0.0625 1.609375 -1.453125l0.140625 -0.65625q-0.703125 0.796875 -1.5625 0.796875q-1.03125 -0.015625 -1.5625 -0.796875q-0.53125 -0.796875 -0.515625 -2.1875153q0 -0.859375 0.171875 -1.84375q0.171875 -0.984375 0.484375 -1.671875q0.84375 -1.765625 2.5625 -1.734375zm-1.234375 5.234375q0 1.2343903 0.8125 1.2656403q0.53125 0.015625 1.0 -0.453125l0.671875 -3.8125153q-0.265625 -0.484375 -0.796875 -0.5q-1.296875 -0.078125 -1.5625 2.078125q-0.125 1.015625 -0.125 1.421875zm13.210571 -0.015625q0.0625 -0.546875 -0.171875 -0.90625q-0.21875 -0.359375 -0.953125 -0.703125q-0.71875 -0.34375 -1.21875 -0.71875q-1.34375 -1.03125 -1.234375 -2.578125q0.078125 -0.890625 0.5625 -1.59375q0.5 -0.703125 1.328125 -1.078125q0.828125 -0.390625 1.765625 -0.375q1.375 0.03125 2.140625 0.953125q0.78125 0.921875 0.71875 2.359375l-2.09375 -0.015625q0.078125 -1.5 -0.953125 -1.515625q-0.53125 -0.015625 -0.921875 0.34375q-0.390625 0.359375 -0.46875 0.9375q-0.109375 0.84375 1.1875 1.453125q1.296875 0.609375 1.859375 1.375q0.625 0.84375 0.53125 2.046875q-0.109375 1.3906403 -1.09375 2.2343903q-0.984375 0.828125 -2.46875 0.796875q-1.484375 -0.03125 -2.359375 -1.015625q-0.859375 -0.984375 -0.78125 -2.5156403l2.109375 0.015625q-0.0625 0.93751526 0.234375 1.3437653q0.3125 0.40625 0.96875 0.40625q0.5625 0 0.890625 -0.34375q0.34375 -0.359375 0.421875 -0.90626526zm5.828491 1.2968903q0.84375 0.03125 1.046875 -1.1718903l1.890625 -0.015625q-0.125 1.3281403 -0.984375 2.1406403q-0.84375 0.796875 -2.0625 0.765625q-1.109375 -0.03125 -1.765625 -0.65625q-0.65625 -0.640625 -0.78125 -1.78125q-0.109375 -0.92189026 0.109375 -2.2187653q0.21875 -1.3125 0.796875 -2.1875q0.96875 -1.421875 2.734375 -1.390625q1.203125 0.046875 1.828125 0.875q0.640625 0.828125 0.578125 2.25l-1.90625 -0.015625l0 -0.453125q-0.03125 -0.90625 -0.71875 -0.9375q-1.078125 -0.0625 -1.28125 1.671875l-0.140625 1.3125q-0.078125 0.59375 -0.0625 1.0000153q0.0625 0.796875 0.71875 0.8125zm6.659363 -5.6562653q0.765625 -0.875 1.671875 -0.859375q0.859375 0.015625 1.3125 0.65625q0.46875 0.625 0.46875 1.734375l-0.03125 0.703125l-0.828125 4.9843903l-2.03125 0l0.828125 -5.0156403l0.03125 -0.421875q0.03125 -0.890625 -0.640625 -0.890625q-0.484375 -0.015625 -0.9375 0.5l-1.015625 5.8281403l-2.03125 0l1.96875 -11.250015l2.015625 0l-0.78125 4.03125zm8.101746 -0.859375q1.203125 0.03125 1.875 0.828125q0.671875 0.78125 0.734375 2.09375l0 0.515625q-0.09375 2.2968903 -1.109375 3.5625153q-1.0 1.265625 -2.609375 1.21875q-0.953125 -0.015625 -1.578125 -0.5q-0.609375 -0.484375 -0.875 -1.34375q-0.265625 -0.875 -0.140625 -2.0000153l0.03125 -0.390625q0.21875 -1.875 1.203125 -2.9375q0.984375 -1.078125 2.46875 -1.046875zm-1.71875 5.203125q0 1.2656403 0.78125 1.3125153q1.046875 0.0625 1.375 -1.6093903l0.078125 -0.53125q0.09375 -1.046875 0.09375 -1.34375q0 -1.265625 -0.796875 -1.3125q-0.578125 -0.03125 -0.953125 0.53125q-0.375 0.5625 -0.484375 1.625q-0.09375 1.0625 -0.09375 1.328125zm8.860779 -5.203125q1.203125 0.03125 1.875 0.828125q0.671875 0.78125 0.734375 2.09375l0 0.515625q-0.09375 2.2968903 -1.109375 3.5625153q-1.0 1.265625 -2.609375 1.21875q-0.953125 -0.015625 -1.578125 -0.5q-0.609375 -0.484375 -0.875 -1.34375q-0.265625 -0.875 -0.140625 -2.0000153l0.03125 -0.390625q0.21875 -1.875 1.203125 -2.9375q0.984375 -1.078125 2.46875 -1.046875zm-1.71875 5.203125q0 1.2656403 0.78125 1.3125153q1.046875 0.0625 1.375 -1.6093903l0.078125 -0.53125q0.09375 -1.046875 0.09375 -1.34375q0 -1.265625 -0.796875 -1.3125q-0.578125 -0.03125 -0.953125 0.53125q-0.375 0.5625 -0.484375 1.625q-0.09375 1.0625 -0.09375 1.328125zm6.813965 2.8750153l-2.03125 0l1.9375 -11.250015l2.046875 0l-1.953125 11.250015zm5.3443604 -2.171875q0.078125 -0.51564026 -0.796875 -0.92189026q-0.875 -0.40625 -1.3125 -0.75q-0.4375 -0.359375 -0.640625 -0.78125q-0.203125 -0.4375 -0.171875 -1.0q0.046875 -1.0625 0.875 -1.765625q0.84375 -0.703125 2.03125 -0.6875q1.1875 0.03125 1.875 0.71875q0.6875 0.671875 0.671875 1.78125l-2.015625 0q0.015625 -0.515625 -0.140625 -0.734375q-0.15625 -0.21875 -0.5 -0.21875q-0.34375 0 -0.59375 0.234375q-0.25 0.234375 -0.296875 0.578125q-0.09375 0.46875 0.734375 0.84375q0.84375 0.375 1.203125 0.625q1.09375 0.734375 1.015625 1.9843903q-0.046875 0.734375 -0.46875 1.296875q-0.40625 0.546875 -1.09375 0.84375q-0.6875 0.296875 -1.5 0.265625q-1.15625 -0.015625 -1.890625 -0.734375q-0.734375 -0.734375 -0.71875 -1.875l1.9375 0.015625q-0.03125 0.578125 0.171875 0.828125q0.203125 0.234375 0.640625 0.234375q0.375 0 0.640625 -0.1875q0.28125 -0.203125 0.34375 -0.59375z" fill-rule="nonzero"></path><path fill="#ffffff" d="m774.0869 250.65813l0.0625 0.734375q0.6875 -0.890625 1.828125 -0.890625q1.1875 0 1.6875 1.078125q0.671875 -1.078125 1.9375 -1.078125q2.078125 0 2.125 2.890625l0 5.1875153l-2.0625 0l0 -5.0625153q0 -0.6875 -0.203125 -0.96875q-0.1875 -0.296875 -0.640625 -0.296875q-0.578125 0 -0.859375 0.703125l0.015625 0.25l0 5.3750153l-2.078125 0l0 -5.0468903q0 -0.6875 -0.1875 -0.984375q-0.171875 -0.296875 -0.640625 -0.296875q-0.53125 0 -0.859375 0.578125l0 5.7500153l-2.0625 0l0 -7.9218903l1.9375 0zm12.683044 7.9218903q-0.078125 -0.1875 -0.171875 -0.609375q-0.5625 0.75 -1.515625 0.75q-0.984375 0 -1.640625 -0.65625q-0.65625 -0.65625 -0.65625 -1.703125q0 -1.2500153 0.78125 -1.9218903q0.796875 -0.6875 2.296875 -0.703125l0.625 0l0 -0.640625q0 -0.53125 -0.1875 -0.75q-0.171875 -0.21875 -0.53125 -0.21875q-0.765625 0 -0.765625 0.90625l-2.078125 0q0 -1.09375 0.828125 -1.8125q0.828125 -0.71875 2.078125 -0.71875q1.3125 0 2.015625 0.6875q0.71875 0.671875 0.71875 1.9375l0 3.7187653q0.015625 1.03125 0.296875 1.609375l0 0.125l-2.09375 0zm-1.21875 -1.484375q0.34375 0 0.578125 -0.140625q0.25 -0.140625 0.359375 -0.328125l0 -1.6406403l-0.484375 0q-0.53125 0 -0.84375 0.34375q-0.296875 0.328125 -0.296875 0.89064026q0 0.875 0.6875 0.875zm4.1018677 -2.7187653q0 -1.953125 0.703125 -2.90625q0.703125 -0.96875 1.96875 -0.96875q1.078125 0 1.671875 0.859375l0.078125 -0.703125l1.875 0l0 7.9218903q0 1.515625 -0.859375 2.3125q-0.84375 0.8125 -2.4375 0.8125q-0.65625 0 -1.375 -0.265625q-0.71875 -0.265625 -1.0625 -0.65625l0.703125 -1.4375q0.28125 0.296875 0.75 0.484375q0.46875 0.203125 0.890625 0.203125q0.703125 0 1.0 -0.328125q0.296875 -0.328125 0.3125 -1.078125l0 -0.671875q-0.59375 0.765625 -1.546875 0.765625q-1.265625 0 -1.96875 -0.984375q-0.6875 -0.984375 -0.703125 -2.7812653l0 -0.578125zm2.078125 0.515625q0 1.1093903 0.28125 1.6093903q0.296875 0.5 0.90625 0.5q0.640625 0 0.953125 -0.46875l0 -3.7812653q-0.328125 -0.5 -0.9375 -0.5q-0.609375 0 -0.90625 0.5q-0.296875 0.5 -0.296875 1.625l0 0.515625zm9.308533 3.6875153q-0.078125 -0.1875 -0.171875 -0.609375q-0.5625 0.75 -1.515625 0.75q-0.984375 0 -1.640625 -0.65625q-0.65625 -0.65625 -0.65625 -1.703125q0 -1.2500153 0.78125 -1.9218903q0.796875 -0.6875 2.296875 -0.703125l0.625 0l0 -0.640625q0 -0.53125 -0.1875 -0.75q-0.171875 -0.21875 -0.53125 -0.21875q-0.765625 0 -0.765625 0.90625l-2.078125 0q0 -1.09375 0.828125 -1.8125q0.828125 -0.71875 2.078125 -0.71875q1.3125 0 2.015625 0.6875q0.71875 0.671875 0.71875 1.9375l0 3.7187653q0.015625 1.03125 0.296875 1.609375l0 0.125l-2.09375 0zm-1.21875 -1.484375q0.34375 0 0.578125 -0.140625q0.25 -0.140625 0.359375 -0.328125l0 -1.6406403l-0.484375 0q-0.53125 0 -0.84375 0.34375q-0.296875 0.328125 -0.296875 0.89064026q0 0.875 0.6875 0.875zm6.6487427 -0.234375l3.140625 0l0 1.71875l-5.59375 0l0 -1.296875l3.046875 -4.9062653l-2.984375 0l0 -1.71875l5.484375 0l0 1.25l-3.09375 4.9531403zm6.524597 1.71875l-2.09375 0l0 -7.9218903l2.09375 0l0 7.9218903zm-2.1875 -9.968765q0 -0.484375 0.3125 -0.796875q0.3125 -0.3125 0.8125 -0.3125q0.515625 0 0.828125 0.3125q0.3125 0.3125 0.3125 0.796875q0 0.46875 -0.3125 0.78125q-0.296875 0.3125 -0.828125 0.3125q-0.515625 0 -0.828125 -0.3125q-0.296875 -0.3125 -0.296875 -0.78125zm5.598938 2.046875l0.046875 0.78125q0.703125 -0.9375 1.84375 -0.9375q2.046875 0 2.109375 2.875l0 5.2031403l-2.078125 0l0 -5.0468903q0 -0.6875 -0.203125 -0.984375q-0.203125 -0.296875 -0.71875 -0.296875q-0.5625 0 -0.875 0.578125l0 5.7500153l-2.078125 0l0 -7.9218903l1.953125 0zm8.510498 8.062515q-1.59375 0 -2.484375 -0.953125q-0.890625 -0.953125 -0.890625 -2.7187653l0 -0.625q0 -1.875 0.8125 -2.890625q0.828125 -1.03125 2.359375 -1.03125q1.484375 0 2.234375 0.96875q0.765625 0.953125 0.78125 2.828125l0 1.015625l-4.125 0q0.046875 0.87501526 0.390625 1.2812653q0.34375 0.40625 1.0625 0.40625q1.03125 0 1.734375 -0.703125l0.8125 1.25q-0.390625 0.53125 -1.109375 0.859375q-0.71875 0.3125 -1.578125 0.3125zm-1.296875 -4.8593903l2.0625 0l0 -0.1875q-0.015625 -0.71875 -0.234375 -1.078125q-0.21875 -0.359375 -0.765625 -0.359375q-0.53125 0 -0.78125 0.390625q-0.234375 0.375 -0.28125 1.234375z" fill-rule="nonzero"></path></g></svg>

