<?xml version="1.0" standalone="yes"?>

<svg version="1.1" viewBox="0.0 0.0 191.9501312335958 100.0" fill="none" stroke="none" stroke-linecap="square" stroke-miterlimit="10" xmlns="http://www.w3.org/2000/svg" xmlns:xlink="http://www.w3.org/1999/xlink"><clipPath id="p.0"><path d="m0 0l191.95013 0l0 100.0l-191.95013 0l0 -100.0z" clip-rule="nonzero"></path></clipPath><g clip-path="url(#p.0)"><path fill="#000000" fill-opacity="0.0" d="m0 0l191.95013 0l0 100.0l-191.95013 0z" fill-rule="nonzero"></path><path fill="#ff9900" d="m0 0l193.44882 0l0 93.85827l-193.44882 0z" fill-rule="nonzero"></path><path fill="#ffffff" d="m26.129053 38.49027c2.0465393 0 3.3811054 0.89245224 4.0036964 2.6773605c0.6287575 1.7770767 0.9431343 4.7949753 0.9431343 9.0536995c0 4.2508926 -0.2958851 7.2805367 -0.88765526 9.088928c-0.5856056 1.8005638 -1.8801041 2.7008438 -3.8834934 2.7008438l-1.8770237 0l0 -23.520832zm-11.363845 -10.885576l0 44.79879l11.705962 0c9.696405 0 14.544607 -7.7933044 14.544611 -23.379917c0 -6.9204254 -1.0910759 -12.220341 -3.2732315 -15.899754c-2.1759872 -3.679411 -5.856062 -5.5191174 -11.04022 -5.5191174z" fill-rule="evenodd"></path><path fill="#ffffff" d="m57.398045 38.2789c1.6890106 0 2.807827 0.7828522 3.3564491 2.3485603c0.54862213 1.5578766 0.8229294 4.548378 0.8229294 8.9715l0 2.3133316c0 4.376148 -0.24656677 7.2648773 -0.73971176 8.666187c-0.48697662 1.3934784 -1.5749702 2.0902176 -3.2639847 2.0902176c-1.6828461 0 -2.7985802 -0.7319679 -3.3472023 -2.1959038c-0.54862213 -1.4717674 -0.8229294 -4.540554 -0.8229294 -9.206356l0 -1.7379341c0 -4.376152 0.24348831 -7.3431664 0.73046494 -8.901043c0.493145 -1.5657082 1.5811386 -2.3485603 3.2639847 -2.3485603zm0.09246445 -11.40226c-4.962242 0 -8.534439 1.8044777 -10.716595 5.4134293c-2.175991 3.6089554 -3.2639847 9.417728 -3.2639847 17.42632c0 8.008591 1.0787506 13.911304 3.2362442 17.708141c2.163662 3.7968445 5.70504 5.695259 10.62413 5.695259c4.9252586 0 8.4851265 -1.9218979 10.679615 -5.7657166c2.2006454 -3.851635 3.3009644 -9.78175 3.3009644 -17.79034c0 -8.008591 -1.0694962 -13.789963 -3.2085037 -17.34412c-2.1390076 -3.5619812 -5.6896286 -5.342972 -10.651871 -5.342972z" fill-rule="evenodd"></path><path fill="#ffffff" d="m75.21099 27.604692l0 44.79879l8.636154 0l0 -20.855217l0.4530716 0l7.3324127 20.855217l9.320381 0l0 -44.79879l-8.6916275 0l0 21.489328l-0.46231842 0l-6.9810486 -21.489328z" fill-rule="evenodd"></path><path fill="#ffffff" d="m117.65114 40.874058l1.9879761 16.017181l-4.3735504 0l1.9879761 -16.017181zm-7.267685 -13.269365l-6.481735 44.79879l9.033745 0l1.0818329 -7.069168l6.7036514 0l1.0818329 7.069168l9.486816 0l-6.481735 -44.79879zm21.643188 0l-0.5732727 10.885576l6.99028 0l0 33.91321l9.717987 0l0 -33.91321l6.5834503 0l0.5732727 -10.885576z" fill-rule="evenodd"></path><path fill="#ffffff" d="m157.52861 27.604692l0 44.79879l19.093857 0l0.5640259 -10.098808l-9.939896 0l0 -7.433193l8.127594 0l0 -9.523415l-8.127594 0l0 -6.705139l9.37587 0l0.5640259 -11.038233z" fill-rule="evenodd"></path></g></svg>

