<?xml version="1.0" standalone="yes"?>

<svg version="1.1" viewBox="0.0 0.0 480.0 201.6010498687664" fill="none" stroke="none" stroke-linecap="square" stroke-miterlimit="10" xmlns="http://www.w3.org/2000/svg" xmlns:xlink="http://www.w3.org/1999/xlink"><clipPath id="p.0"><path d="m0 0l480.0 0l0 201.60104l-480.0 0l0 -201.60104z" clip-rule="nonzero"></path></clipPath><g clip-path="url(#p.0)"><path fill="#000000" fill-opacity="0.0" d="m0 0l480.0 0l0 201.60104l-480.0 0z" fill-rule="nonzero"></path><path fill="#000000" fill-opacity="0.0" d="m17.480314 14.779528l445.03937 0l0 53.039375l-445.03937 0z" fill-rule="nonzero"></path><path fill="#999999" d="m77.97656 35.956398l0 14.703125l-5.078125 0l0 -14.703125l-7.96875 0l0 -4.078123l21.03125 0l0 4.078123l-7.984375 0zm29.314453 14.703125l0 -7.828125l-12.90625 0l0 7.828125l-5.078125 0l0 -18.781248l5.078125 0l0 6.828123l12.90625 0l0 -6.828123l5.0625 0l0 18.781248l-5.0625 0zm10.9453125 0l0 -18.781248l19.015625 0l0 3.999998l-13.796875 0l0 3.109375l13.09375 0l0 4.0l-13.09375 0l0 3.671875l14.0 0l0 4.0l-19.21875 0zm52.615234 0l0 -7.828125l-12.90625 0l0 7.828125l-5.078125 0l0 -18.781248l5.078125 0l0 6.828123l12.90625 0l0 -6.828123l5.0625 0l0 18.781248l-5.0625 0zm10.9453125 0l0 -18.781248l5.078125 0l0 18.781248l-5.078125 0zm23.060547 -19.265623q2.75 0 5.125 0.46875q2.375 0.4687481 4.359375 1.2187481l0 4.59375q-0.78125 -0.4375 -1.765625 -0.84375q-0.96875 -0.421875 -2.125 -0.734375q-1.140625 -0.3125 -2.453125 -0.5q-1.3125 -0.203125 -2.765625 -0.203125q-1.796875 0 -3.140625 0.265625q-1.34375 0.265625 -2.296875 0.703125q-0.953125 0.4375 -1.578125 1.015625q-0.609375 0.578125 -0.96875 1.234375q-0.359375 0.65625 -0.5 1.34375q-0.125 0.6875 -0.125 1.328125q0 0.5625 0.109375 1.21875q0.125 0.65625 0.4375 1.3125q0.328125 0.65625 0.890625 1.265625q0.578125 0.59375 1.5 1.0625q0.921875 0.453125 2.21875 0.734375q1.3125 0.28125 3.09375 0.28125q0.90625 0 1.578125 -0.046875q0.671875 -0.0625 1.21875 -0.15625q0.5625 -0.09375 1.046875 -0.234375q0.484375 -0.140625 1.0 -0.28125l0 -2.28125l-5.6875 0l0 -4.109375l10.765625 0l0 9.59375q-1.015625 0.34375 -2.265625 0.625q-1.25 0.28125 -2.59375 0.46875q-1.328125 0.203125 -2.671875 0.3125q-1.328125 0.109375 -2.515625 0.109375q-1.859375 0 -3.5625 -0.25q-1.6875 -0.234375 -3.15625 -0.75q-1.46875 -0.515625 -2.6875 -1.296875q-1.203125 -0.796875 -2.0625 -1.890625q-0.84375 -1.09375 -1.3125 -2.5q-0.46875 -1.421875 -0.46875 -3.1875q0 -1.75 0.484375 -3.171875q0.5 -1.421875 1.375 -2.515625q0.890625 -1.09375 2.125 -1.890625q1.234375 -0.796875 2.71875 -1.296875q1.484375 -0.5156231 3.171875 -0.7656231q1.6875 -0.25 3.484375 -0.25zm33.36914 19.265623l0 -7.828125l-12.90625 0l0 7.828125l-5.078125 0l0 -18.781248l5.078125 0l0 6.828123l12.90625 0l0 -6.828123l5.0625 0l0 18.781248l-5.0625 0zm38.785156 -13.5q-0.53125 -0.25 -1.40625 -0.578125q-0.875 -0.328125 -1.984375 -0.625q-1.109375 -0.296875 -2.40625 -0.484375q-1.296875 -0.203125 -2.671875 -0.203125q-1.09375 0 -1.875 0.0625q-0.765625 0.0625 -1.296875 0.171875q-0.515625 0.109375 -0.828125 0.265625q-0.296875 0.140625 -0.46875 0.296875q-0.15625 0.140625 -0.203125 0.296875q-0.046875 0.140625 -0.046875 0.265625q0 0.40625 0.40625 0.71875q0.40625 0.3125 1.109375 0.546875q0.71875 0.234375 1.65625 0.453125q0.953125 0.21875 2.0 0.4375q1.0625 0.21875 2.1875 0.5q1.140625 0.265625 2.1875 0.625q1.0625 0.34375 2.0 0.8125q0.953125 0.46875 1.65625 1.109375q0.71875 0.625 1.125 1.453125q0.421875 0.8125 0.421875 1.859375q0 1.359375 -0.484375 2.328125q-0.484375 0.96875 -1.28125 1.640625q-0.796875 0.671875 -1.859375 1.078125q-1.046875 0.40625 -2.203125 0.625q-1.15625 0.21875 -2.34375 0.28125q-1.171875 0.0625 -2.234375 0.0625q-2.796875 0 -5.171875 -0.453125q-2.359375 -0.453125 -4.1875 -1.140625l0 -4.484375q1.875 1.03125 4.265625 1.625q2.40625 0.59375 5.140625 0.59375q1.625 0 2.640625 -0.171875q1.015625 -0.171875 1.578125 -0.4375q0.578125 -0.265625 0.78125 -0.578125q0.21875 -0.328125 0.21875 -0.609375q0 -0.453125 -0.421875 -0.78125q-0.40625 -0.34375 -1.125 -0.59375q-0.703125 -0.25 -1.65625 -0.453125q-0.9375 -0.21875 -2.0 -0.421875q-1.046875 -0.21875 -2.171875 -0.46875q-1.125 -0.25 -2.1875 -0.578125q-1.046875 -0.34375 -2.0 -0.78125q-0.9375 -0.453125 -1.65625 -1.046875q-0.703125 -0.609375 -1.125 -1.40625q-0.40625 -0.8125 -0.40625 -1.859375q0 -1.25 0.4375 -2.140625q0.4375 -0.90625 1.1875 -1.546875q0.75 -0.640625 1.71875 -1.03125q0.984375 -0.390625 2.0625 -0.6093731q1.078125 -0.21875 2.1875 -0.296875q1.109375 -0.09375 2.109375 -0.09375q1.09375 0 2.25 0.109375q1.15625 0.109375 2.265625 0.3125q1.125 0.1874981 2.171875 0.4531231q1.046875 0.265625 1.9375 0.546875l0 4.34375zm27.05664 12.21875q-0.984375 0.40625 -1.984375 0.734375q-1.0 0.328125 -2.0625 0.5625q-1.0625 0.25 -2.25 0.359375q-1.1875 0.125 -2.53125 0.125q-2.875 0 -5.296875 -0.609375q-2.40625 -0.609375 -4.15625 -1.84375q-1.734375 -1.25 -2.703125 -3.09375q-0.96875 -1.859375 -0.96875 -4.328125q0 -2.484375 0.96875 -4.328125q0.96875 -1.859375 2.703125 -3.09375q1.75 -1.234375 4.15625 -1.84375q2.421875 -0.6249981 5.296875 -0.6249981q1.34375 0 2.53125 0.125q1.1875 0.125 2.25 0.359375q1.0625 0.2343731 2.0625 0.5624981q1.0 0.328125 1.984375 0.75l0 4.5625q-0.78125 -0.421875 -1.640625 -0.84375q-0.859375 -0.421875 -1.90625 -0.75q-1.03125 -0.328125 -2.28125 -0.546875q-1.234375 -0.21875 -2.796875 -0.21875q-2.390625 0 -3.96875 0.5q-1.578125 0.484375 -2.53125 1.3125q-0.9375 0.8125 -1.328125 1.875q-0.375 1.0625 -0.375 2.203125q0 0.75 0.15625 1.484375q0.171875 0.71875 0.546875 1.375q0.390625 0.65625 1.0 1.203125q0.625 0.546875 1.53125 0.9375q0.921875 0.390625 2.140625 0.625q1.21875 0.21875 2.828125 0.21875q1.5625 0 2.796875 -0.1875q1.25 -0.203125 2.28125 -0.53125q1.046875 -0.328125 1.90625 -0.75q0.859375 -0.421875 1.640625 -0.859375l0 4.578125l0 0zm22.710938 1.28125l0 -7.828125l-12.90625 0l0 7.828125l-5.078125 0l0 -18.781248l5.078125 0l0 6.828123l12.90625 0l0 -6.828123l5.0625 0l0 18.781248l-5.0625 0zm35.257812 -9.375q0 2.421875 -0.890625 4.28125q-0.890625 1.84375 -2.546875 3.09375q-1.65625 1.234375 -4.015625 1.875q-2.34375 0.625 -5.296875 0.625q-2.9375 0 -5.3125 -0.625q-2.359375 -0.640625 -4.03125 -1.875q-1.671875 -1.25 -2.578125 -3.09375q-0.890625 -1.859375 -0.890625 -4.28125q0 -2.421875 0.890625 -4.265625q0.90625 -1.859375 2.578125 -3.109375q1.671875 -1.25 4.03125 -1.875q2.375 -0.6406231 5.3125 -0.6406231q2.953125 0 5.296875 0.6406231q2.359375 0.625 4.015625 1.875q1.65625 1.25 2.546875 3.109375q0.890625 1.84375 0.890625 4.265625zm-5.125 0q0 -1.0625 -0.34375 -2.109375q-0.328125 -1.046875 -1.1875 -1.875q-0.84375 -0.828125 -2.328125 -1.34375q-1.46875 -0.53125 -3.765625 -0.53125q-1.53125 0 -2.6875 0.25q-1.15625 0.234375 -2.015625 0.65625q-0.84375 0.421875 -1.421875 1.0q-0.5625 0.5625 -0.90625 1.21875q-0.34375 0.640625 -0.484375 1.34375q-0.140625 0.703125 -0.140625 1.390625q0 0.6875 0.140625 1.40625q0.140625 0.703125 0.484375 1.359375q0.34375 0.640625 0.90625 1.203125q0.578125 0.5625 1.421875 0.984375q0.859375 0.421875 2.015625 0.65625q1.15625 0.234375 2.6875 0.234375q2.296875 0 3.765625 -0.515625q1.484375 -0.515625 2.328125 -1.34375q0.859375 -0.84375 1.1875 -1.890625q0.34375 -1.046875 0.34375 -2.09375zm34.054688 0q0 2.421875 -0.890625 4.28125q-0.890625 1.84375 -2.546875 3.09375q-1.65625 1.234375 -4.015625 1.875q-2.34375 0.625 -5.296875 0.625q-2.9375 0 -5.3125 -0.625q-2.359375 -0.640625 -4.03125 -1.875q-1.671875 -1.25 -2.578125 -3.09375q-0.890625 -1.859375 -0.890625 -4.28125q0 -2.421875 0.890625 -4.265625q0.90625 -1.859375 2.578125 -3.109375q1.671875 -1.25 4.03125 -1.875q2.375 -0.6406231 5.3125 -0.6406231q2.953125 0 5.296875 0.6406231q2.359375 0.625 4.015625 1.875q1.65625 1.25 2.546875 3.109375q0.890625 1.84375 0.890625 4.265625zm-5.125 0q0 -1.0625 -0.34375 -2.109375q-0.328125 -1.046875 -1.1875 -1.875q-0.84375 -0.828125 -2.328125 -1.34375q-1.46875 -0.53125 -3.765625 -0.53125q-1.53125 0 -2.6875 0.25q-1.15625 0.234375 -2.015625 0.65625q-0.84375 0.421875 -1.421875 1.0q-0.5625 0.5625 -0.90625 1.21875q-0.34375 0.640625 -0.484375 1.34375q-0.140625 0.703125 -0.140625 1.390625q0 0.6875 0.140625 1.40625q0.140625 0.703125 0.484375 1.359375q0.34375 0.640625 0.90625 1.203125q0.578125 0.5625 1.421875 0.984375q0.859375 0.421875 2.015625 0.65625q1.15625 0.234375 2.6875 0.234375q2.296875 0 3.765625 -0.515625q1.484375 -0.515625 2.328125 -1.34375q0.859375 -0.84375 1.1875 -1.890625q0.34375 -1.046875 0.34375 -2.09375zm9.7421875 9.375l0 -18.781248l5.078125 0l0 14.671873l13.703125 0l0 4.109375l-18.78125 0z" fill-rule="nonzero"></path><path fill="#000000" fill-opacity="0.0" d="m-19.307087 46.48819l518.6142 0l0 103.62204l-518.6142 0z" fill-rule="nonzero"></path><path fill="#c10000" d="m22.801662 91.328186l0 -24.828125l25.125 0l0 5.296875l-18.25 0l0 4.109375l17.3125 0l0 5.28125l-17.3125 0l0 4.84375l18.5 0l0 5.296875l-25.375 0zm55.57105 0l-16.734379 -17.0625l0 17.0625l-6.703125 0l0 -24.828125l7.28125 0l16.765629 17.125l0 -17.125l6.65625 0l0 24.828125l-7.265625 0zm32.04146 0l-7.8125 0l-12.546875 -24.828125l7.46875 0l9.03125 18.6875l9.015625 -18.6875l7.484375 0l-12.640625 24.828125zm17.008331 0l0 -24.828125l6.703125 0l0 24.828125l-6.703125 0zm21.302658 0l-6.703125 0l0 -24.828125l16.796875 0q2.703125 0 4.59375 0.5625q1.890625 0.5625 3.0625 1.59375q1.1875 1.03125 1.71875 2.484375q0.546875 1.453125 0.546875 3.234375q0 1.578125 -0.453125 2.75q-0.4375 1.171875 -1.1875 2.015625q-0.75 0.84375 -1.75 1.421875q-0.984375 0.578125 -2.09375 0.953125l8.140625 9.8125l-7.84375 0l-7.515625 -9.140625l-7.3125 0l0 9.140625zm13.234375 -16.984375q0 -0.71875 -0.1875 -1.21875q-0.1875 -0.515625 -0.65625 -0.828125q-0.46875 -0.3125 -1.265625 -0.453125q-0.78125 -0.15625 -1.953125 -0.15625l-9.171875 0l0 5.3125l9.171875 0q1.171875 0 1.953125 -0.140625q0.796875 -0.140625 1.265625 -0.453125q0.46875 -0.328125 0.65625 -0.828125q0.1875 -0.515625 0.1875 -1.234375zm46.656647 4.59375q0 3.1875 -1.171875 5.640625q-1.171875 2.453125 -3.359375 4.09375q-2.1875 1.640625 -5.3125 2.484375q-3.109375 0.84375 -6.984375 0.84375q-3.890625 0 -7.03125 -0.84375q-3.125 -0.84375 -5.328125 -2.484375q-2.203125 -1.640625 -3.40625 -4.09375q-1.1875 -2.453125 -1.1875 -5.640625q0 -3.203125 1.1875 -5.640625q1.203125 -2.453125 3.40625 -4.09375q2.203125 -1.65625 5.328125 -2.484375q3.140625 -0.84375 7.03125 -0.84375q3.875 0 6.984375 0.84375q3.125 0.828125 5.3125 2.484375q2.1875 1.640625 3.359375 4.09375q1.171875 2.4375 1.171875 5.640625zm-6.765625 0q0 -1.390625 -0.453125 -2.765625q-0.4375 -1.390625 -1.5625 -2.484375q-1.125 -1.109375 -3.078125 -1.796875q-1.953125 -0.6875 -4.96875 -0.6875q-2.03125 0 -3.5625 0.3125q-1.53125 0.3125 -2.65625 0.875q-1.125 0.5625 -1.890625 1.3125q-0.75 0.75 -1.203125 1.609375q-0.453125 0.859375 -0.640625 1.796875q-0.1875 0.921875 -0.1875 1.828125q0 0.921875 0.1875 1.859375q0.1875 0.9375 0.640625 1.796875q0.453125 0.859375 1.203125 1.609375q0.765625 0.734375 1.890625 1.28125q1.125 0.546875 2.65625 0.875q1.53125 0.3125 3.5625 0.3125q3.015625 0 4.96875 -0.6875q1.953125 -0.6875 3.078125 -1.78125q1.125 -1.109375 1.5625 -2.484375q0.453125 -1.390625 0.453125 -2.78125zm36.66127 12.390625l-16.73436 -17.0625l0 17.0625l-6.703125 0l0 -24.828125l7.28125 0l16.76561 17.125l0 -17.125l6.65625 0l0 24.828125l-7.265625 0zm46.94771 0l0 -17.4375l-9.21875 17.4375l-6.4375 0l-9.203125 -17.4375l0 17.4375l-6.7031097 0l0 -24.828125l9.093735 0l10.03125 18.796875l10.03125 -18.796875l9.0625 0l0 24.828125l-6.65625 0zm14.842499 0l0 -24.828125l25.125 0l0 5.296875l-18.25 0l0 4.109375l17.3125 0l0 5.28125l-17.3125 0l0 4.84375l18.5 0l0 5.296875l-25.375 0zm55.571045 0l-16.734375 -17.0625l0 17.0625l-6.703125 0l0 -24.828125l7.28125 0l16.765625 17.125l0 -17.125l6.65625 0l0 24.828125l-7.265625 0zm29.291443 -19.421875l0 19.421875l-6.703125 0l0 -19.421875l-10.53125 0l0 -5.40625l27.78125 0l0 5.40625l-10.546875 0zm35.1756 14.71875l-13.84375 0l-2.328125 4.703125l-7.46875 0l12.984375 -24.828125l7.484375 0l12.984375 24.828125l-7.484375 0l-2.328125 -4.703125zm-11.4375 -4.84375l9.078125 0l-4.515625 -9.140625l-4.5625 9.140625zm25.62024 9.546875l0 -24.828125l6.703125 0l0 19.390625l18.109375 0l0 5.4375l-24.8125 0z" fill-rule="nonzero"></path><path fill="#c10000" d="m84.58078 136.32819l0 -24.828125l6.703125 0l0 19.390625l18.109375 0l0 5.4375l-24.8125 0zm30.456696 0l0 -24.828125l25.125 0l0 5.296875l-18.25 0l0 4.109375l17.3125 0l0 5.28125l-17.3125 0l0 4.84375l18.5 0l0 5.296875l-25.375 0zm52.071045 -4.703125l-13.84375 0l-2.328125 4.703125l-7.46875 0l12.984375 -24.828125l7.484375 0l12.984375 24.828125l-7.484375 0l-2.328125 -4.703125zm-11.4375 -4.84375l9.078125 0l-4.515625 -9.140625l-4.5625 9.140625zm56.02649 -2.890625q0 2.390625 -0.53125 4.25q-0.515625 1.84375 -1.46875 3.21875q-0.953125 1.375 -2.28125 2.328125q-1.328125 0.953125 -2.953125 1.53125q-1.625 0.578125 -3.5 0.84375q-1.875 0.265625 -3.921875 0.265625l-15.75 0l0 -24.828125l15.71875 0q2.03125 0 3.90625 0.265625q1.890625 0.265625 3.515625 0.84375q1.640625 0.578125 2.96875 1.53125q1.34375 0.9375 2.296875 2.328125q0.953125 1.375 1.46875 3.21875q0.53125 1.84375 0.53125 4.203125zm-6.765625 0q0 -1.78125 -0.46875 -3.09375q-0.453125 -1.328125 -1.46875 -2.1875q-1.015625 -0.859375 -2.671875 -1.28125q-1.640625 -0.421875 -4.0 -0.421875l-8.328125 0l0 14.015625l8.328125 0q2.359375 0 4.0 -0.421875q1.65625 -0.421875 2.671875 -1.296875q1.015625 -0.875 1.46875 -2.1875q0.46875 -1.328125 0.46875 -3.125zm13.195389 12.4375l0 -24.828125l25.125 0l0 5.296875l-18.25 0l0 4.109375l17.3125 0l0 5.28125l-17.3125 0l0 4.84375l18.5 0l0 5.296875l-25.375 0zm38.836655 0l-6.7031097 0l0 -24.828125l16.79686 0q2.703125 0 4.59375 0.5625q1.890625 0.5625 3.0625 1.59375q1.1875 1.03125 1.71875 2.484375q0.546875 1.453125 0.546875 3.234375q0 1.578125 -0.453125 2.75q-0.4375 1.171875 -1.1875 2.015625q-0.75 0.84375 -1.75 1.421875q-0.984375 0.578125 -2.09375 0.953125l8.140625 9.8125l-7.84375 0l-7.515625 -9.140625l-7.3125 0l0 9.140625zm13.234375 -16.984375q0 -0.71875 -0.1875 -1.21875q-0.1875 -0.515625 -0.65625 -0.828125q-0.46875 -0.3125 -1.265625 -0.453125q-0.78125 -0.15625 -1.953125 -0.15625l-9.171875 0l0 5.3125l9.171875 0q1.171875 0 1.953125 -0.140625q0.796875 -0.140625 1.265625 -0.453125q0.46875 -0.328125 0.65625 -0.828125q0.1875 -0.515625 0.1875 -1.234375zm37.406647 -0.84375q-0.703125 -0.34375 -1.859375 -0.78125q-1.15625 -0.4375 -2.625 -0.8125q-1.453125 -0.390625 -3.171875 -0.65625q-1.71875 -0.265625 -3.515625 -0.265625q-1.453125 0 -2.46875 0.09375q-1.015625 0.09375 -1.71875 0.234375q-0.6875 0.140625 -1.109375 0.328125q-0.40625 0.1875 -0.625 0.390625q-0.203125 0.203125 -0.265625 0.40625q-0.0625 0.1875 -0.0625 0.359375q0 0.53125 0.53125 0.9375q0.546875 0.40625 1.484375 0.734375q0.9375 0.3125 2.1875 0.59375q1.25 0.28125 2.640625 0.578125q1.40625 0.296875 2.890625 0.65625q1.5 0.34375 2.890625 0.8125q1.40625 0.46875 2.65625 1.09375q1.25 0.625 2.1875 1.453125q0.9375 0.828125 1.46875 1.921875q0.546875 1.078125 0.546875 2.46875q0 1.78125 -0.640625 3.078125q-0.625 1.28125 -1.6875 2.171875q-1.046875 0.875 -2.4375 1.40625q-1.390625 0.53125 -2.921875 0.8125q-1.515625 0.296875 -3.078125 0.390625q-1.5625 0.09375 -2.984375 0.09375q-3.6875 0 -6.828125 -0.609375q-3.125 -0.609375 -5.53125 -1.515625l0 -5.921875q2.484375 1.375 5.65625 2.15625q3.171875 0.78125 6.78125 0.78125q2.125 0 3.46875 -0.21875q1.359375 -0.234375 2.109375 -0.578125q0.765625 -0.359375 1.03125 -0.78125q0.265625 -0.421875 0.265625 -0.796875q0 -0.59375 -0.546875 -1.03125q-0.53125 -0.453125 -1.46875 -0.78125q-0.9375 -0.34375 -2.1875 -0.609375q-1.25 -0.28125 -2.65625 -0.5625q-1.390625 -0.28125 -2.875 -0.609375q-1.484375 -0.328125 -2.890625 -0.765625q-1.390625 -0.4375 -2.640625 -1.03125q-1.234375 -0.59375 -2.1875 -1.390625q-0.9375 -0.8125 -1.484375 -1.859375q-0.53125 -1.0625 -0.53125 -2.453125q0 -1.640625 0.578125 -2.828125q0.578125 -1.203125 1.5625 -2.03125q0.984375 -0.84375 2.265625 -1.359375q1.296875 -0.53125 2.71875 -0.8125q1.4375 -0.296875 2.890625 -0.40625q1.46875 -0.109375 2.796875 -0.109375q1.4375 0 2.96875 0.140625q1.53125 0.140625 3.0 0.40625q1.484375 0.265625 2.859375 0.609375q1.390625 0.34375 2.5625 0.71875l0 5.75zm32.440918 17.828125l0 -10.359375l-17.046875 0l0 10.359375l-6.703125 0l0 -24.828125l6.703125 0l0 9.03125l17.046875 0l0 -9.03125l6.703125 0l0 24.828125l-6.703125 0zm14.817566 0l0 -24.828125l6.703125 0l0 24.828125l-6.703125 0zm42.490173 -16.34375q0 1.859375 -0.546875 3.421875q-0.546875 1.5625 -1.75 2.6875q-1.1875 1.125 -3.109375 1.765625q-1.90625 0.625 -4.65625 0.625l-11.125 0l0 7.84375l-6.703125 0l0 -24.828125l17.828125 0q2.75 0 4.65625 0.625q1.921875 0.625 3.109375 1.765625q1.203125 1.125 1.75 2.671875q0.546875 1.546875 0.546875 3.421875zm-6.78125 0.109375q0 -0.875 -0.25 -1.5q-0.234375 -0.625 -0.796875 -1.015625q-0.5625 -0.40625 -1.46875 -0.59375q-0.890625 -0.1875 -2.21875 -0.1875l-9.671875 0l0 6.390625l9.671875 0q1.328125 0 2.21875 -0.140625q0.90625 -0.15625 1.46875 -0.53125q0.5625 -0.375 0.796875 -0.96875q0.25 -0.59375 0.25 -1.453125z" fill-rule="nonzero"></path><path fill="#000000" fill-opacity="0.0" d="m17.480314 136.28084l445.03937 0l0 53.039368l-445.03937 0z" fill-rule="nonzero"></path><path fill="#999999" d="m167.11328 159.78584q0 1.40625 -0.40625 2.59375q-0.40625 1.1875 -1.328125 2.046875q-0.90625 0.84375 -2.359375 1.328125q-1.4375 0.46875 -3.515625 0.46875l-8.421875 0l0 5.9375l-5.078125 0l0 -18.78125l13.5 0q2.078125 0 3.515625 0.46875q1.453125 0.46875 2.359375 1.328125q0.921875 0.84375 1.328125 2.03125q0.40625 1.171875 0.40625 2.578125zm-5.125 0.078125q0 -0.65625 -0.1875 -1.125q-0.1875 -0.46875 -0.609375 -0.765625q-0.421875 -0.3125 -1.109375 -0.453125q-0.671875 -0.140625 -1.671875 -0.140625l-7.328125 0l0 4.84375l7.328125 0q1.0 0 1.671875 -0.109375q0.6875 -0.125 1.109375 -0.40625q0.421875 -0.28125 0.609375 -0.734375q0.1875 -0.453125 0.1875 -1.109375zm14.400391 12.296875l-5.078125 0l0 -18.78125l12.71875 0q2.046875 0 3.46875 0.421875q1.4375 0.421875 2.328125 1.203125q0.90625 0.78125 1.296875 1.890625q0.40625 1.09375 0.40625 2.4375q0 1.1875 -0.34375 2.078125q-0.328125 0.890625 -0.890625 1.53125q-0.5625 0.625 -1.3125 1.0625q-0.75 0.4375 -1.59375 0.734375l6.15625 7.421875l-5.9375 0l-5.6875 -6.921875l-5.53125 0l0 6.921875zm10.015625 -12.859375q0 -0.546875 -0.140625 -0.921875q-0.140625 -0.390625 -0.5 -0.625q-0.359375 -0.234375 -0.953125 -0.34375q-0.59375 -0.109375 -1.484375 -0.109375l-6.9375 0l0 4.015625l6.9375 0q0.890625 0 1.484375 -0.109375q0.59375 -0.109375 0.953125 -0.34375q0.359375 -0.25 0.5 -0.625q0.140625 -0.390625 0.140625 -0.9375zm35.085938 3.484375q0 2.421875 -0.890625 4.28125q-0.890625 1.84375 -2.546875 3.09375q-1.65625 1.234375 -4.015625 1.875q-2.34375 0.625 -5.296875 0.625q-2.9375 0 -5.3125 -0.625q-2.359375 -0.640625 -4.03125 -1.875q-1.671875 -1.25 -2.578125 -3.09375q-0.890625 -1.859375 -0.890625 -4.28125q0 -2.421875 0.890625 -4.265625q0.90625 -1.859375 2.578125 -3.109375q1.671875 -1.25 4.03125 -1.875q2.375 -0.640625 5.3125 -0.640625q2.953125 0 5.296875 0.640625q2.359375 0.625 4.015625 1.875q1.65625 1.25 2.546875 3.109375q0.890625 1.84375 0.890625 4.265625zm-5.125 0q0 -1.0625 -0.34375 -2.109375q-0.328125 -1.046875 -1.1875 -1.875q-0.84375 -0.828125 -2.328125 -1.34375q-1.46875 -0.53125 -3.765625 -0.53125q-1.53125 0 -2.6875 0.25q-1.15625 0.234375 -2.015625 0.65625q-0.84375 0.421875 -1.421875 1.0q-0.5625 0.5625 -0.90625 1.21875q-0.34375 0.640625 -0.484375 1.34375q-0.140625 0.703125 -0.140625 1.390625q0 0.6875 0.140625 1.40625q0.140625 0.703125 0.484375 1.359375q0.34375 0.640625 0.90625 1.203125q0.578125 0.5625 1.421875 0.984375q0.859375 0.421875 2.015625 0.65625q1.15625 0.234375 2.6875 0.234375q2.296875 0 3.765625 -0.515625q1.484375 -0.515625 2.328125 -1.34375q0.859375 -0.84375 1.1875 -1.890625q0.34375 -1.046875 0.34375 -2.09375zm21.851562 -9.890625q2.75 0 5.125 0.46875q2.375 0.46875 4.359375 1.21875l0 4.59375q-0.78125 -0.4375 -1.765625 -0.84375q-0.96875 -0.421875 -2.125 -0.734375q-1.140625 -0.3125 -2.453125 -0.5q-1.3125 -0.203125 -2.765625 -0.203125q-1.796875 0 -3.140625 0.265625q-1.34375 0.265625 -2.296875 0.703125q-0.953125 0.4375 -1.578125 1.015625q-0.609375 0.578125 -0.96875 1.234375q-0.359375 0.65625 -0.5 1.34375q-0.125 0.6875 -0.125 1.328125q0 0.5625 0.109375 1.21875q0.125 0.65625 0.4375 1.3125q0.328125 0.65625 0.890625 1.265625q0.578125 0.59375 1.5 1.0625q0.921875 0.453125 2.21875 0.734375q1.3125 0.28125 3.09375 0.28125q0.90625 0 1.578125 -0.046875q0.671875 -0.0625 1.21875 -0.15625q0.5625 -0.09375 1.046875 -0.234375q0.484375 -0.140625 1.0 -0.28125l0 -2.28125l-5.6875 0l0 -4.109375l10.765625 0l0 9.59375q-1.015625 0.34375 -2.265625 0.625q-1.25 0.28125 -2.59375 0.46875q-1.328125 0.203125 -2.671875 0.3125q-1.328125 0.109375 -2.515625 0.109375q-1.859375 0 -3.5625 -0.25q-1.6875 -0.234375 -3.15625 -0.75q-1.46875 -0.515625 -2.6875 -1.296875q-1.203125 -0.796875 -2.0625 -1.890625q-0.84375 -1.09375 -1.3125 -2.5q-0.46875 -1.421875 -0.46875 -3.1875q0 -1.75 0.484375 -3.171875q0.5 -1.421875 1.375 -2.515625q0.890625 -1.09375 2.125 -1.890625q1.234375 -0.796875 2.71875 -1.296875q1.484375 -0.515625 3.171875 -0.765625q1.6875 -0.25 3.484375 -0.25zm20.46289 19.265625l-5.078125 0l0 -18.78125l12.71875 0q2.046875 0 3.46875 0.421875q1.4375 0.421875 2.328125 1.203125q0.90625 0.78125 1.296875 1.890625q0.40625 1.09375 0.40625 2.4375q0 1.1875 -0.34375 2.078125q-0.328125 0.890625 -0.890625 1.53125q-0.5625 0.625 -1.3125 1.0625q-0.75 0.4375 -1.59375 0.734375l6.15625 7.421875l-5.9375 0l-5.6875 -6.921875l-5.53125 0l0 6.921875zm10.015625 -12.859375q0 -0.546875 -0.140625 -0.921875q-0.140625 -0.390625 -0.5 -0.625q-0.359375 -0.234375 -0.953125 -0.34375q-0.59375 -0.109375 -1.484375 -0.109375l-6.9375 0l0 4.015625l6.9375 0q0.890625 0 1.484375 -0.109375q0.59375 -0.109375 0.953125 -0.34375q0.359375 -0.25 0.5 -0.625q0.140625 -0.390625 0.140625 -0.9375zm25.867188 9.296875l-10.46875 0l-1.765625 3.5625l-5.65625 0l9.828125 -18.78125l5.65625 0l9.828125 18.78125l-5.65625 0l-1.765625 -3.5625zm-8.65625 -3.65625l6.875 0l-3.421875 -6.921875l-3.453125 6.921875zm43.046875 7.21875l0 -13.1875l-6.96875 13.1875l-4.875 0l-6.96875 -13.1875l0 13.1875l-5.078125 0l0 -18.78125l6.890625 0l7.59375 14.21875l7.578125 -14.21875l6.875 0l0 18.78125l-5.046875 0z" fill-rule="nonzero"></path></g></svg>

